<?xml version="1.0" encoding="UTF-8" standalone="no"?>
<svg
   id="Flat"
   viewBox="0 0 24 24"
   version="1.1"
   sodipodi:docname="arrow_line_down.svg"
   width="24"
   height="24"
   inkscape:version="1.3 (0e150ed6c4, 2023-07-21)"
   xmlns:inkscape="http://www.inkscape.org/namespaces/inkscape"
   xmlns:sodipodi="http://sodipodi.sourceforge.net/DTD/sodipodi-0.dtd"
   xmlns="http://www.w3.org/2000/svg"
   xmlns:svg="http://www.w3.org/2000/svg">
  <defs
     id="defs1" />
  <sodipodi:namedview
     id="namedview1"
     pagecolor="#505050"
     bordercolor="#eeeeee"
     borderopacity="1"
     inkscape:showpageshadow="0"
     inkscape:pageopacity="0"
     inkscape:pagecheckerboard="0"
     inkscape:deskcolor="#505050"
     inkscape:zoom="13.476562"
     inkscape:cx="-17.289276"
     inkscape:cy="33.280001"
     inkscape:window-width="3840"
     inkscape:window-height="2054"
     inkscape:window-x="-11"
     inkscape:window-y="-11"
     inkscape:window-maximized="1"
     inkscape:current-layer="Flat" />
  <path
     d="M 5.2928879,11.373464 A 1.0000085,1.0000085 0 1 1 6.7071129,9.9592382 L 11,14.252125 V 3.9996838 a 1.0000002,1.0000002 0 0 1 2,0 V 14.252125 l 4.292888,-4.2928868 a 1.0000085,1.0000085 0 0 1 1.414225,1.4142258 l -6,6 c -5.83e-4,6.66e-4 -0.0013,0.0012 -0.002,0.0018 q -0.03406,0.0339 -0.07129,0.06443 c -0.01177,0.0097 -0.02417,0.01809 -0.03626,0.02712 -0.01404,0.0105 -0.02775,0.02136 -0.04232,0.03113 -0.01432,0.0096 -0.02922,0.0179 -0.04391,0.02665 -0.01331,0.0079 -0.02633,0.01631 -0.04004,0.02366 -0.01493,0.008 -0.03032,0.01477 -0.04558,0.02195 -0.01432,0.0068 -0.0284,0.01391 -0.04309,0.02 -0.01485,0.0062 -0.03003,0.01113 -0.04513,0.01652 -0.01571,0.0056 -0.03121,0.01166 -0.04724,0.01652 -0.01506,0.0045 -0.03031,0.0078 -0.04553,0.01172 -0.01644,0.0041 -0.03268,0.0087 -0.0494,0.01207 -0.01745,0.0035 -0.03503,0.0055 -0.05257,0.008 -0.01473,0.0021 -0.02925,0.0049 -0.04419,0.0063 -0.03279,0.0032 -0.06571,0.005 -0.09863,0.005 -0.03292,0 -0.06583,-0.0018 -0.09863,-0.005 -0.01493,-0.0014 -0.02946,-0.0043 -0.04419,-0.0063 -0.01753,-0.0025 -0.03511,-0.0045 -0.05257,-0.008 -0.01672,-0.0033 -0.03295,-0.0079 -0.0494,-0.01207 -0.01522,-0.0038 -0.03048,-0.0071 -0.04553,-0.01172 -0.01607,-0.0048 -0.03157,-0.01088 -0.04728,-0.01654 -0.0151,-0.0054 -0.03024,-0.01034 -0.04509,-0.01648 -0.01469,-0.0061 -0.02881,-0.01326 -0.04313,-0.02004 -0.01526,-0.0072 -0.0306,-0.01394 -0.04553,-0.02193 -0.01371,-0.0073 -0.02673,-0.01571 -0.04004,-0.02366 -0.01469,-0.0087 -0.02958,-0.01707 -0.0439,-0.02665 -0.01456,-0.0098 -0.02828,-0.02063 -0.04232,-0.03113 -0.01208,-0.009 -0.02449,-0.01746 -0.03625,-0.02712 q -0.03723,-0.03048 -0.07129,-0.06443 c -6.66e-4,-5.83e-4 -0.0013,-0.0012 -0.002,-0.0018 z M 18.666666,18.999683 H 5.3333335 a 1.0000005,1.0000005 0 1 0 0,2.000001 H 18.666666 a 1.0000005,1.0000005 0 0 0 0,-2.000001 z"
     id="path1"
     style="fill:#d7dbe4;fill-opacity:1;stroke-width:0.0833334" />
</svg>
