<?xml version="1.0" encoding="UTF-8" standalone="no"?>
<svg
   id="Flat"
   viewBox="0 0 24 24"
   version="1.1"
   sodipodi:docname="arrow_line_up.svg"
   width="24"
   height="24"
   inkscape:version="1.3 (0e150ed6c4, 2023-07-21)"
   xmlns:inkscape="http://www.inkscape.org/namespaces/inkscape"
   xmlns:sodipodi="http://sodipodi.sourceforge.net/DTD/sodipodi-0.dtd"
   xmlns="http://www.w3.org/2000/svg"
   xmlns:svg="http://www.w3.org/2000/svg">
  <defs
     id="defs1" />
  <sodipodi:namedview
     id="namedview1"
     pagecolor="#505050"
     bordercolor="#eeeeee"
     borderopacity="1"
     inkscape:showpageshadow="0"
     inkscape:pageopacity="0"
     inkscape:pagecheckerboard="0"
     inkscape:deskcolor="#505050"
     inkscape:zoom="26.953125"
     inkscape:cx="2.7455072"
     inkscape:cy="24.691014"
     inkscape:window-width="3840"
     inkscape:window-height="2054"
     inkscape:window-x="-11"
     inkscape:window-y="-11"
     inkscape:window-maximized="1"
     inkscape:current-layer="Flat" />
  <path
     d="M 18.706796,12.62622 A 1.0000088,1.0000088 0 0 1 17.29257,14.040446 L 12.999684,9.747558 V 20 a 1.0000005,1.0000005 0 1 1 -2.000001,0 V 9.747558 L 6.7067962,14.040446 A 1.0000085,1.0000085 0 0 1 5.292571,12.62622 l 6,-6.0000004 c 5.83e-4,-6.334e-4 0.0013,-0.00112 0.0019,-0.00177 q 0.03406,-0.033904 0.07129,-0.064429 c 0.0118,-0.00973 0.02425,-0.018169 0.03641,-0.027242 0.01396,-0.010458 0.02763,-0.021284 0.04212,-0.030989 0.01449,-0.00968 0.02954,-0.018081 0.04439,-0.026954 0.01314,-0.00784 0.02596,-0.016095 0.03951,-0.023334 0.01514,-0.00812 0.03072,-0.014998 0.04619,-0.022261 0.01412,-0.00664 0.028,-0.013716 0.04248,-0.019714 0.0151,-0.00625 0.03056,-0.011315 0.0459,-0.016808 0.01542,-0.00553 0.03064,-0.011435 0.04639,-0.016215 0.01554,-0.00472 0.03133,-0.00816 0.04704,-0.012107 0.01591,-0.004 0.03161,-0.00846 0.04785,-0.011675 0.01831,-0.0036 0.03678,-0.00585 0.05522,-0.00843 0.01388,-0.00192 0.02751,-0.00465 0.04151,-0.00601 a 1.0067066,1.0067066 0 0 1 0.19775,0 c 0.014,0.00136 0.02763,0.00408 0.04151,0.00601 0.01843,0.00264 0.0369,0.0048 0.05522,0.00843 0.01623,0.00321 0.03194,0.00769 0.04785,0.011675 0.0157,0.00393 0.03149,0.00736 0.04704,0.012107 0.01575,0.00472 0.03093,0.010682 0.04631,0.016191 0.01538,0.00553 0.03089,0.010562 0.04602,0.016848 0.01444,0.00601 0.02828,0.01302 0.0424,0.019674 0.01546,0.00729 0.03108,0.014157 0.04623,0.022277 0.01355,0.00721 0.02637,0.015503 0.03951,0.023334 0.01486,0.00887 0.02991,0.017272 0.04439,0.026954 0.01449,0.00971 0.02815,0.020531 0.04212,0.030989 0.01216,0.00907 0.02462,0.017521 0.03641,0.027242 q 0.03724,0.030485 0.0713,0.064428 c 6.66e-4,6.086e-4 0.0014,0.00112 0.0019,0.00177 z M 18.66635,2.9999999 H 5.3330171 a 1,1 0 0 0 0,1.9999999 H 18.66635 a 1,1 0 1 0 0,-1.9999999 z"
     id="path1"
     style="fill:#d7dbe4;fill-opacity:1;stroke:none;stroke-width:0.0833336;stroke-opacity:1" />
</svg>
