<?xml version="1.0" encoding="UTF-8" standalone="no"?>
<svg
   width="24"
   height="24"
   viewBox="0 0 24 24"
   version="1.1"
   id="svg1"
   sodipodi:docname="circle-cancel.svg"
   inkscape:version="1.3 (0e150ed6c4, 2023-07-21)"
   xmlns:inkscape="http://www.inkscape.org/namespaces/inkscape"
   xmlns:sodipodi="http://sodipodi.sourceforge.net/DTD/sodipodi-0.dtd"
   xmlns="http://www.w3.org/2000/svg"
   xmlns:svg="http://www.w3.org/2000/svg"
   xmlns:rdf="http://www.w3.org/1999/02/22-rdf-syntax-ns#"
   xmlns:cc="http://creativecommons.org/ns#"
   xmlns:dc="http://purl.org/dc/elements/1.1/">
  <defs
     id="defs1" />
  <sodipodi:namedview
     id="namedview1"
     pagecolor="#505050"
     bordercolor="#eeeeee"
     borderopacity="1"
     inkscape:showpageshadow="0"
     inkscape:pageopacity="0"
     inkscape:pagecheckerboard="0"
     inkscape:deskcolor="#505050"
     inkscape:zoom="30.49398"
     inkscape:cx="-1.278941"
     inkscape:cy="8.9689834"
     inkscape:window-width="3840"
     inkscape:window-height="2054"
     inkscape:window-x="-11"
     inkscape:window-y="-11"
     inkscape:window-maximized="1"
     inkscape:current-layer="svg1" />
  <!-- Generator: Sketch 52.5 (67469) - http://www.bohemiancoding.com/sketch -->
  <title
     id="title1">cancel</title>
  <desc
     id="desc1">Created with Sketch.</desc>
  <g
     id="Icons"
     stroke="none"
     stroke-width="1"
     fill="none"
     fill-rule="evenodd"
     transform="matrix(0.9,0,0,0.9,3,3)"
     style="fill:#e4727c;fill-opacity:1">
    <g
       id="Rounded"
       transform="translate(-204,-3434)"
       style="fill:#e4727c;fill-opacity:1">
      <g
         id="Navigation"
         transform="translate(100,3378)"
         style="fill:#e4727c;fill-opacity:1">
        <g
           id="-Round-/-Navigation-/-cancel"
           transform="translate(102,54)"
           style="fill:#e4727c;fill-opacity:1">
          <g
             id="g1"
             style="fill:#e4727c;fill-opacity:1">
            <path
               d="M 12,2 C 6.47,2 2,6.47 2,12 2,17.53 6.47,22 12,22 17.53,22 22,17.53 22,12 22,6.47 17.53,2 12,2 Z m 4.3,14.3 c -0.39,0.39 -1.02,0.39 -1.41,0 L 12,13.41 9.11,16.3 c -0.39,0.39 -1.02,0.39 -1.41,0 -0.39,-0.39 -0.39,-1.02 0,-1.41 L 10.59,12 7.7,9.11 C 7.31,8.72 7.31,8.09 7.7,7.7 8.09,7.31 8.72,7.31 9.11,7.7 L 12,10.59 14.89,7.7 c 0.39,-0.39 1.02,-0.39 1.41,0 0.39,0.39 0.39,1.02 0,1.41 L 13.41,12 16.3,14.89 c 0.38,0.38 0.38,1.02 0,1.41 z"
               id="🔹-Icon-Color"
               fill="#1d1d1d"
               style="fill:#e4727c;fill-opacity:1" />
          </g>
        </g>
      </g>
    </g>
  </g>
  <metadata
     id="metadata1">
    <rdf:RDF>
      <cc:Work
         rdf:about="">
        <dc:title>cancel</dc:title>
      </cc:Work>
    </rdf:RDF>
  </metadata>
</svg>
