<?xml version="1.0" encoding="UTF-8" standalone="no"?>
<svg
   width="24"
   height="24"
   viewBox="0 0 24 24"
   version="1.1"
   id="svg1"
   sodipodi:docname="circle-check.svg"
   inkscape:version="1.3 (0e150ed6c4, 2023-07-21)"
   xmlns:inkscape="http://www.inkscape.org/namespaces/inkscape"
   xmlns:sodipodi="http://sodipodi.sourceforge.net/DTD/sodipodi-0.dtd"
   xmlns="http://www.w3.org/2000/svg"
   xmlns:svg="http://www.w3.org/2000/svg"
   xmlns:rdf="http://www.w3.org/1999/02/22-rdf-syntax-ns#"
   xmlns:cc="http://creativecommons.org/ns#"
   xmlns:dc="http://purl.org/dc/elements/1.1/">
  <defs
     id="defs1" />
  <sodipodi:namedview
     id="namedview1"
     pagecolor="#505050"
     bordercolor="#eeeeee"
     borderopacity="1"
     inkscape:showpageshadow="0"
     inkscape:pageopacity="0"
     inkscape:pagecheckerboard="0"
     inkscape:deskcolor="#505050"
     inkscape:zoom="21.5625"
     inkscape:cx="0.64927536"
     inkscape:cy="10.828986"
     inkscape:window-width="3840"
     inkscape:window-height="2054"
     inkscape:window-x="-11"
     inkscape:window-y="-11"
     inkscape:window-maximized="1"
     inkscape:current-layer="svg1" />
  <!-- Generator: Sketch 52.5 (67469) - http://www.bohemiancoding.com/sketch -->
  <title
     id="title1">check_circle</title>
  <desc
     id="desc1">Created with Sketch.</desc>
  <g
     id="Icons"
     stroke="none"
     stroke-width="1"
     fill="none"
     fill-rule="evenodd"
     transform="matrix(0.9,0,0,0.9,3,3)"
     style="fill:#4acd3e;fill-opacity:1">
    <g
       id="Rounded"
       transform="translate(-646,-200)"
       style="fill:#4acd3e;fill-opacity:1">
      <g
         id="Action"
         transform="translate(100,100)"
         style="fill:#4acd3e;fill-opacity:1">
        <g
           id="-Round-/-Action-/-check_circle"
           transform="translate(544,98)"
           style="fill:#4acd3e;fill-opacity:1">
          <g
             id="g1"
             style="fill:#4acd3e;fill-opacity:1">
            <path
               d="M 12,2 C 6.48,2 2,6.48 2,12 2,17.52 6.48,22 12,22 17.52,22 22,17.52 22,12 22,6.48 17.52,2 12,2 Z M 9.29,16.29 5.7,12.7 c -0.39,-0.39 -0.39,-1.02 0,-1.41 0.39,-0.39 1.02,-0.39 1.41,0 L 10,14.17 16.88,7.29 c 0.39,-0.39 1.02,-0.39 1.41,0 0.39,0.39 0.39,1.02 0,1.41 l -7.59,7.59 c -0.38,0.39 -1.02,0.39 -1.41,0 z"
               id="🔹Icon-Color"
               fill="#1d1d1d"
               style="fill:#4acd3e;fill-opacity:1" />
          </g>
        </g>
      </g>
    </g>
  </g>
  <metadata
     id="metadata1">
    <rdf:RDF>
      <cc:Work
         rdf:about="">
        <dc:title>check_circle</dc:title>
      </cc:Work>
    </rdf:RDF>
  </metadata>
</svg>
