<?xml version="1.0" encoding="UTF-8" standalone="no"?>
<svg
   width="24"
   height="24"
   viewBox="0 0 24 24"
   fill="none"
   version="1.1"
   id="svg2"
   sodipodi:docname="copy.svg"
   inkscape:version="1.3 (0e150ed6c4, 2023-07-21)"
   xmlns:inkscape="http://www.inkscape.org/namespaces/inkscape"
   xmlns:sodipodi="http://sodipodi.sourceforge.net/DTD/sodipodi-0.dtd"
   xmlns="http://www.w3.org/2000/svg"
   xmlns:svg="http://www.w3.org/2000/svg">
  <defs
     id="defs2" />
  <sodipodi:namedview
     id="namedview2"
     pagecolor="#505050"
     bordercolor="#eeeeee"
     borderopacity="1"
     inkscape:showpageshadow="0"
     inkscape:pageopacity="0"
     inkscape:pagecheckerboard="0"
     inkscape:deskcolor="#505050"
     inkscape:zoom="25.41165"
     inkscape:cx="-2.1250096"
     inkscape:cy="10.329908"
     inkscape:window-width="3840"
     inkscape:window-height="2054"
     inkscape:window-x="-11"
     inkscape:window-y="-11"
     inkscape:window-maximized="1"
     inkscape:current-layer="svg2" />
  <path
     d="M16 12.9V17.1C16 20.6 14.6 22 11.1 22H6.9C3.4 22 2 20.6 2 17.1V12.9C2 9.4 3.4 8 6.9 8H11.1C14.6 8 16 9.4 16 12.9Z"
     fill="#292D32"
     id="path1"
     style="fill:#d7dbe4;fill-opacity:1" />
  <path
     opacity="0.4"
     d="M17.0998 2H12.8998C9.44976 2 8.04977 3.37 8.00977 6.75H11.0998C15.2998 6.75 17.2498 8.7 17.2498 12.9V15.99C20.6298 15.95 21.9998 14.55 21.9998 11.1V6.9C21.9998 3.4 20.5998 2 17.0998 2Z"
     fill="#292D32"
     id="path2"
     style="fill:#d7dbe4;fill-opacity:1" />
</svg>
