<?xml version="1.0" encoding="UTF-8" standalone="no"?>
<svg
   width="24"
   height="24"
   viewBox="0 0 24 24"
   fill="none"
   version="1.1"
   id="svg1"
   sodipodi:docname="document_table.svg"
   inkscape:version="1.3 (0e150ed6c4, 2023-07-21)"
   xmlns:inkscape="http://www.inkscape.org/namespaces/inkscape"
   xmlns:sodipodi="http://sodipodi.sourceforge.net/DTD/sodipodi-0.dtd"
   xmlns="http://www.w3.org/2000/svg"
   xmlns:svg="http://www.w3.org/2000/svg">
  <defs
     id="defs1" />
  <sodipodi:namedview
     id="namedview1"
     pagecolor="#505050"
     bordercolor="#eeeeee"
     borderopacity="1"
     inkscape:showpageshadow="0"
     inkscape:pageopacity="0"
     inkscape:pagecheckerboard="0"
     inkscape:deskcolor="#505050"
     inkscape:zoom="30.49398"
     inkscape:cx="-6.6242583"
     inkscape:cy="14.642234"
     inkscape:window-width="3840"
     inkscape:window-height="2054"
     inkscape:window-x="-11"
     inkscape:window-y="-11"
     inkscape:window-maximized="1"
     inkscape:current-layer="svg1" />
  <path
     d="m 10.875,17.625 v -2.25 h 4.5 v 1.6875 c 0,0.310612 -0.251887,0.5625 -0.5625,0.5625 z m 4.5,-5.0625 V 14.25 h -4.5 V 12 h 3.9375 c 0.310613,0 0.5625,0.251888 0.5625,0.5625 z M 8.625,15.375 H 9.75 v 2.25 H 9.1875 C 8.8768425,17.625 8.625,17.373112 8.625,17.0625 Z M 9.75,14.25 V 12 H 9.1875 C 8.8768425,12 8.625,12.251888 8.625,12.5625 V 14.25 Z M 12,8.0625 V 3 H 6.9375 C 6.0055163,3 5.25,3.7555163 5.25,4.6875 v 14.625 C 5.25,20.24445 6.0055163,21 6.9375,21 h 10.125 C 17.99445,21 18.75,20.24445 18.75,19.3125 V 9.75 H 13.6875 C 12.75555,9.75 12,8.9944838 12,8.0625 Z m -4.5,4.5 c 0,-0.931984 0.7555163,-1.6875 1.6875,-1.6875 h 5.625 c 0.93195,0 1.6875,0.755516 1.6875,1.6875 v 4.5 c 0,0.93195 -0.75555,1.6875 -1.6875,1.6875 H 9.1875 C 8.2555163,18.75 7.5,17.99445 7.5,17.0625 Z m 5.625,-4.5 V 3.28125 L 18.46875,8.625 H 13.6875 c -0.310612,0 -0.5625,-0.2518425 -0.5625,-0.5625 z"
     fill="#212121"
     id="path1"
     style="stroke-width:1.125;fill:#d7dbe4;fill-opacity:1" />
</svg>
