<?xml version="1.0" encoding="UTF-8" standalone="no"?>
<svg
   height="24"
   style="clip-rule:evenodd;fill-rule:evenodd;image-rendering:optimizeQuality;shape-rendering:geometricPrecision;text-rendering:geometricPrecision"
   version="1.1"
   viewBox="0 0 24 24"
   width="24"
   xml:space="preserve"
   id="svg1"
   sodipodi:docname="error-continue.svg"
   inkscape:version="1.3 (0e150ed6c4, 2023-07-21)"
   xmlns:inkscape="http://www.inkscape.org/namespaces/inkscape"
   xmlns:sodipodi="http://sodipodi.sourceforge.net/DTD/sodipodi-0.dtd"
   xmlns="http://www.w3.org/2000/svg"
   xmlns:svg="http://www.w3.org/2000/svg"><sodipodi:namedview
     id="namedview1"
     pagecolor="#505050"
     bordercolor="#eeeeee"
     borderopacity="1"
     inkscape:showpageshadow="0"
     inkscape:pageopacity="0"
     inkscape:pagecheckerboard="0"
     inkscape:deskcolor="#505050"
     inkscape:document-units="mm"
     inkscape:zoom="26.953336"
     inkscape:cx="-0.25970811"
     inkscape:cy="6.6225569"
     inkscape:window-width="3840"
     inkscape:window-height="2054"
     inkscape:window-x="-11"
     inkscape:window-y="-11"
     inkscape:window-maximized="1"
     inkscape:current-layer="Layer_x0020_1" /><defs
     id="defs1"><style
       type="text/css"
       id="style1">&#10;   <![CDATA[
    .fil0 {fill:black;fill-rule:nonzero}
   ]]>&#10;  </style></defs><g
     id="Layer_x0020_1"
     transform="matrix(0,2.1733223,-2.1733223,0,2120.0308,279.96739)"
     style="fill:#d7dbe4;fill-opacity:1"><path
       class="fil0"
       d="m -126.92847,973.25062 c -0.25107,0 -0.25107,-0.38181 0,-0.38181 h 7.25994 c 0.25107,0 0.25107,0.38181 0,0.38181 z m 1.69541,-6.26515 c -0.16854,-0.18515 0.11342,-0.44165 0.28188,-0.25651 l 0.57249,0.6303 0.57249,-0.6303 c 0.16845,-0.18514 0.45041,0.0714 0.28187,0.25651 l -0.59693,0.65723 0.59693,0.65723 c 0.16854,0.18524 -0.11342,0.44165 -0.28187,0.25651 l -0.57249,-0.6303 -0.57249,0.6303 c -0.16846,0.18514 -0.45042,-0.0713 -0.28188,-0.25651 l 0.59693,-0.65723 z m 4.81989,4.81765 c 0,0.25115 -0.38181,0.25115 -0.38181,0 v -4.13257 c 0,-0.25107 0.38181,-0.25107 0.38181,0 z m -1.79631,0 c 0,0.25115 -0.38181,0.25115 -0.38181,0 v -3.15521 c 0,-0.25107 0.38181,-0.25107 0.38181,0 z m -1.79631,0 c 0,0.25115 -0.38182,0.25115 -0.38182,0 v -2.06629 c 0,-0.25107 0.38182,-0.25107 0.38182,0 z m -1.79622,0 c 0,0.25115 -0.38191,0.25115 -0.38191,0 v -1.20059 c 0,-0.25116 0.38191,-0.25116 0.38191,0 z"
       id="path1"
       style="fill:#d7dbe4;fill-opacity:1;stroke:#d7dbe4;stroke-width:0.645712;stroke-dasharray:none;stroke-opacity:1"
       sodipodi:nodetypes="ssssscccccccccccccssssssssssssssssssss" /></g></svg>
