<?xml version="1.0" encoding="UTF-8" standalone="no"?>
<svg
   viewBox="0 0 24 24"
   version="1.1"
   id="svg1"
   sodipodi:docname="floppy_disk.svg"
   width="24"
   height="24"
   inkscape:version="1.3 (0e150ed6c4, 2023-07-21)"
   xmlns:inkscape="http://www.inkscape.org/namespaces/inkscape"
   xmlns:sodipodi="http://sodipodi.sourceforge.net/DTD/sodipodi-0.dtd"
   xmlns="http://www.w3.org/2000/svg"
   xmlns:svg="http://www.w3.org/2000/svg">
  <defs
     id="defs1" />
  <sodipodi:namedview
     id="namedview1"
     pagecolor="#505050"
     bordercolor="#eeeeee"
     borderopacity="1"
     inkscape:showpageshadow="0"
     inkscape:pageopacity="0"
     inkscape:pagecheckerboard="0"
     inkscape:deskcolor="#505050"
     inkscape:zoom="26.953125"
     inkscape:cx="-2.6342029"
     inkscape:cy="17.530435"
     inkscape:window-width="3840"
     inkscape:window-height="2054"
     inkscape:window-x="-11"
     inkscape:window-y="-11"
     inkscape:window-maximized="1"
     inkscape:current-layer="svg1" />
  <!--! Font Awesome Free 6.0.0-beta2 by @fontawesome - https://fontawesome.com License - https://fontawesome.com/license/free (Icons: CC BY 4.0, Fonts: SIL OFL 1.1, Code: MIT License) -->
  <path
     d="M 20.40134,6.90134 17.03036,3.53036 C 16.75312,3.25393 16.14241,3 15.70045,3 H 5.57143 C 4.15112,3 3,4.15112 3,5.57143 V 18.42857 C 3,19.84888 4.15112,21 5.57143,21 H 18.42857 C 19.84888,21 21,19.84888 21,18.42857 V 8.29955 C 21,7.85759 20.74688,7.24688 20.40134,6.90134 Z M 12,18.42857 c -1.41991,0 -2.57143,-1.15152 -2.57143,-2.57143 0,-1.41991 1.15152,-2.57143 2.57143,-2.57143 1.41991,0 2.57143,1.15152 2.57143,2.57143 0,1.41991 -1.15313,2.57143 -2.57143,2.57143 z m 3.85714,-8.35714 c 0,0.35357 -0.28928,0.64286 -0.64285,0.64286 h -9 c -0.35518,0 -0.64286,-0.28929 -0.64286,-0.64286 V 6.21429 c 0,-0.35358 0.28768,-0.64286 0.64286,-0.64286 h 9 c 0.35357,0 0.64285,0.28928 0.64285,0.64286 z"
     id="path1"
     style="stroke-width:0.0401786;fill:#d7dbe4;fill-opacity:1" />
</svg>
