<?xml version="1.0" encoding="UTF-8" standalone="no"?>
<!-- Generator: Adobe Illustrator 18.1.1, SVG Export Plug-In . SVG Version: 6.00 Build 0)  -->

<svg
   version="1.1"
   id="Capa_1"
   x="0px"
   y="0px"
   viewBox="0 0 24 24"
   xml:space="preserve"
   sodipodi:docname="folder.svg"
   width="24"
   height="24"
   inkscape:version="1.3 (0e150ed6c4, 2023-07-21)"
   xmlns:inkscape="http://www.inkscape.org/namespaces/inkscape"
   xmlns:sodipodi="http://sodipodi.sourceforge.net/DTD/sodipodi-0.dtd"
   xmlns="http://www.w3.org/2000/svg"
   xmlns:svg="http://www.w3.org/2000/svg"><defs
   id="defs17" /><sodipodi:namedview
   id="namedview17"
   pagecolor="#505050"
   bordercolor="#eeeeee"
   borderopacity="1"
   inkscape:showpageshadow="0"
   inkscape:pageopacity="0"
   inkscape:pagecheckerboard="0"
   inkscape:deskcolor="#505050"
   inkscape:zoom="12.197592"
   inkscape:cx="-10.739825"
   inkscape:cy="40.786739"
   inkscape:window-width="3840"
   inkscape:window-height="2054"
   inkscape:window-x="-11"
   inkscape:window-y="-11"
   inkscape:window-maximized="1"
   inkscape:current-layer="Capa_1" />&#10;<g
   id="g2"
   transform="matrix(0.19056693,0,0,0.19056693,2.4717036,2.4716536)"
   style="fill:#d7dbe4;fill-opacity:1">&#10;	<g
   id="g1"
   style="fill:#d7dbe4;fill-opacity:1">&#10;		<path
   style="fill:#d7dbe4;fill-opacity:1"
   d="m 95.351,35 h -90.7 c -4.604,0 -4.834,2.241 -4.584,4.979 L 4.194,85.02 C 4.444,87.759 5.093,90 9.69,90 h 80.621 c 4.688,0 5.244,-2.241 5.494,-4.979 L 99.932,39.98 C 100.183,37.241 99.954,35 95.351,35 Z M 92.022,24 C 91.467,21.8 88.747,20 85.975,20 H 51.903 c -2.771,0 -6.645,-1.588 -8.607,-3.528 L 40.317,13.529 C 38.354,11.588 34.481,10 31.71,10 H 15.431 c -2.771,0 -5.289,2.236 -5.594,4.97 L 8.376,28 H 93.03 Z"
   id="path1" />&#10;	</g>&#10;</g>&#10;<g
   id="g3"
   transform="matrix(0.225,0,0,0.225,-1.4998773e-4,7.75)"
   style="fill:#d7dbe4;fill-opacity:1">&#10;</g>&#10;<g
   id="g4"
   transform="matrix(0.225,0,0,0.225,-1.4998773e-4,7.75)"
   style="fill:#d7dbe4;fill-opacity:1">&#10;</g>&#10;<g
   id="g5"
   transform="matrix(0.225,0,0,0.225,-1.4998773e-4,7.75)"
   style="fill:#d7dbe4;fill-opacity:1">&#10;</g>&#10;<g
   id="g6"
   transform="matrix(0.225,0,0,0.225,-1.4998773e-4,7.75)"
   style="fill:#d7dbe4;fill-opacity:1">&#10;</g>&#10;<g
   id="g7"
   transform="matrix(0.225,0,0,0.225,-1.4998773e-4,7.75)"
   style="fill:#d7dbe4;fill-opacity:1">&#10;</g>&#10;<g
   id="g8"
   transform="matrix(0.225,0,0,0.225,-1.4998773e-4,7.75)"
   style="fill:#d7dbe4;fill-opacity:1">&#10;</g>&#10;<g
   id="g9"
   transform="matrix(0.225,0,0,0.225,-1.4998773e-4,7.75)"
   style="fill:#d7dbe4;fill-opacity:1">&#10;</g>&#10;<g
   id="g10"
   transform="matrix(0.225,0,0,0.225,-1.4998773e-4,7.75)"
   style="fill:#d7dbe4;fill-opacity:1">&#10;</g>&#10;<g
   id="g11"
   transform="matrix(0.225,0,0,0.225,-1.4998773e-4,7.75)"
   style="fill:#d7dbe4;fill-opacity:1">&#10;</g>&#10;<g
   id="g12"
   transform="matrix(0.225,0,0,0.225,-1.4998773e-4,7.75)"
   style="fill:#d7dbe4;fill-opacity:1">&#10;</g>&#10;<g
   id="g13"
   transform="matrix(0.225,0,0,0.225,-1.4998773e-4,7.75)"
   style="fill:#d7dbe4;fill-opacity:1">&#10;</g>&#10;<g
   id="g14"
   transform="matrix(0.225,0,0,0.225,-1.4998773e-4,7.75)"
   style="fill:#d7dbe4;fill-opacity:1">&#10;</g>&#10;<g
   id="g15"
   transform="matrix(0.225,0,0,0.225,-1.4998773e-4,7.75)"
   style="fill:#d7dbe4;fill-opacity:1">&#10;</g>&#10;<g
   id="g16"
   transform="matrix(0.225,0,0,0.225,-1.4998773e-4,7.75)"
   style="fill:#d7dbe4;fill-opacity:1">&#10;</g>&#10;<g
   id="g17"
   transform="matrix(0.225,0,0,0.225,-1.4998773e-4,7.75)"
   style="fill:#d7dbe4;fill-opacity:1">&#10;</g>&#10;</svg>
