<?xml version="1.0" encoding="UTF-8" standalone="no"?>
<svg
   id="Dashboard"
   version="1.1"
   viewBox="0 0 24 24"
   xml:space="preserve"
   sodipodi:docname="GDSQLGraph.svg"
   inkscape:version="1.3 (0e150ed6c4, 2023-07-21)"
   width="24"
   height="24"
   xmlns:inkscape="http://www.inkscape.org/namespaces/inkscape"
   xmlns:sodipodi="http://sodipodi.sourceforge.net/DTD/sodipodi-0.dtd"
   xmlns="http://www.w3.org/2000/svg"
   xmlns:svg="http://www.w3.org/2000/svg"><defs
     id="defs7" /><sodipodi:namedview
     id="namedview7"
     pagecolor="#505050"
     bordercolor="#eeeeee"
     borderopacity="1"
     inkscape:showpageshadow="0"
     inkscape:pageopacity="0"
     inkscape:pagecheckerboard="0"
     inkscape:deskcolor="#505050"
     inkscape:zoom="19.058737"
     inkscape:cx="-15.688342"
     inkscape:cy="23.84733"
     inkscape:window-width="3840"
     inkscape:window-height="2054"
     inkscape:window-x="-11"
     inkscape:window-y="-11"
     inkscape:window-maximized="1"
     inkscape:current-layer="Dashboard" /><style
     type="text/css"
     id="style1">&#10;	.st0{fill:#E4EDF2;}&#10;	.st1{fill:#55C1FA;}&#10;	.st2{fill:#393B3D;}&#10;	.st3{fill:#F25949;}&#10;	.st4{fill:#16F293;}&#10;	.st5{fill:#FBC34E;}&#10;</style><g
     id="g9"
     transform="matrix(0.71709886,0,0,0.71709886,0.54197118,0.52641824)"><path
       class="st0"
       d="M 2,11.5 V 29 c 0,0.55 0.45,1 1,1 h 26 c 0.55,0 1,-0.45 1,-1 V 11.5 Z m 5,12.429 h 3 V 19.25 c 0,-0.553 0.448,-1 1,-1 0.552,0 1,0.447 1,1 v 4.679 h 3 v -7.518 c 0,-0.552 0.448,-1 1,-1 0.552,0 1,0.448 1,1 v 7.518 h 3 V 13.571 c 0,-0.552 0.447,-1 1,-1 0.553,0 1,0.448 1,1 v 10.357 h 3 c 0.553,0 1,0.447 1,1 0,0.553 -0.447,1 -1,1 H 7 c -0.552,0 -1,-0.447 -1,-1 0,-0.553 0.448,-0.999 1,-0.999 z"
       id="path1"
       style="display:inline;fill:#d7dbe4;fill-opacity:1" /><path
       class="st1"
       d="M 29,2 H 3 C 2.448,2 2,2.448 2,3 v 8.5 H 30 V 3 C 30,2.448 29.553,2 29,2 Z M 25.75,7.25 H 22.5 c -0.553,0 -1,-0.448 -1,-1 0,-0.552 0.447,-1 1,-1 h 3.25 c 0.553,0 1,0.448 1,1 0,0.552 -0.447,1 -1,1 z"
       id="path2"
       style="fill:#1680b0;fill-opacity:1" /><path
       class="st2"
       d="m 25.276609,4.3105484 h -6.303218 c -1.072517,0 -1.939452,0.8688743 -1.939452,1.9394516 0,1.0705773 0.866935,1.9394516 1.939452,1.9394516 h 6.303218 c 1.072517,0 1.939452,-0.8688743 1.939452,-1.9394516 0,-1.0705773 -0.866935,-1.9394516 -1.939452,-1.9394516 z"
       id="path3"
       style="stroke-width:1.93945" /><rect
       style="font-variation-settings:'BEVL' 80, 'wght' 400;fill:#d7dbe4;fill-opacity:1;fill-rule:evenodd;stroke-width:1.731;stroke-linecap:round;stroke-linejoin:round;paint-order:stroke fill markers"
       id="rect7"
       width="25.027891"
       height="16.527853"
       x="3.3580399"
       y="11.963017" /><g
       id="g8"
       transform="translate(0,-0.009323)"><circle
         style="font-variation-settings:'BEVL' 80, 'wght' 400;fill:#ea5252;fill-opacity:1;fill-rule:evenodd;stroke-width:0.471295;stroke-linecap:round;stroke-linejoin:round;paint-order:stroke fill markers"
         id="path7"
         cx="29.817898"
         cy="15.509323"
         r="1.5" /><circle
         style="font-variation-settings:'BEVL' 80, 'wght' 400;fill:#198619;fill-opacity:1;fill-rule:evenodd;stroke-width:0.471295;stroke-linecap:round;stroke-linejoin:round;paint-order:stroke fill markers"
         id="path7-2"
         cx="29.817898"
         cy="20.450651"
         r="1.5" /><circle
         style="font-variation-settings:'BEVL' 80, 'wght' 400;fill:#6600ff;fill-opacity:1;fill-rule:evenodd;stroke-width:0.471295;stroke-linecap:round;stroke-linejoin:round;paint-order:stroke fill markers"
         id="path7-2-5"
         cx="29.817898"
         cy="25.391979"
         r="1.5" /></g><g
       id="g7"
       transform="translate(0,0.225287)"><circle
         style="font-variation-settings:'BEVL' 80, 'wght' 400;fill:#ea5252;fill-opacity:1;fill-rule:evenodd;stroke-width:0.471295;stroke-linecap:round;stroke-linejoin:round;paint-order:stroke fill markers"
         id="path7-5"
         cx="2.1387248"
         cy="15.274713"
         r="1.5" /><circle
         style="font-variation-settings:'BEVL' 80, 'wght' 400;fill:#198619;fill-opacity:1;fill-rule:evenodd;stroke-width:0.471295;stroke-linecap:round;stroke-linejoin:round;paint-order:stroke fill markers"
         id="path7-2-2"
         cx="2.1387248"
         cy="20.216042"
         r="1.5" /><circle
         style="font-variation-settings:'BEVL' 80, 'wght' 400;fill:#6600ff;fill-opacity:1;fill-rule:evenodd;stroke-width:0.471295;stroke-linecap:round;stroke-linejoin:round;paint-order:stroke fill markers"
         id="path7-2-5-2"
         cx="2.1387248"
         cy="25.15737"
         r="1.5" /></g></g></svg>
