<?xml version="1.0" encoding="UTF-8" standalone="no"?>
<svg
   width="24"
   height="24"
   viewBox="0 0 24 24"
   fill="none"
   version="1.1"
   id="svg1"
   sodipodi:docname="database.svg"
   inkscape:version="1.3 (0e150ed6c4, 2023-07-21)"
   xmlns:inkscape="http://www.inkscape.org/namespaces/inkscape"
   xmlns:sodipodi="http://sodipodi.sourceforge.net/DTD/sodipodi-0.dtd"
   xmlns="http://www.w3.org/2000/svg"
   xmlns:svg="http://www.w3.org/2000/svg">
  <defs
     id="defs1" />
  <sodipodi:namedview
     id="namedview1"
     pagecolor="#505050"
     bordercolor="#eeeeee"
     borderopacity="1"
     inkscape:showpageshadow="0"
     inkscape:pageopacity="0"
     inkscape:pagecheckerboard="0"
     inkscape:deskcolor="#505050"
     inkscape:zoom="12.705825"
     inkscape:cx="-12.435241"
     inkscape:cy="16.252388"
     inkscape:window-width="3840"
     inkscape:window-height="2054"
     inkscape:window-x="-11"
     inkscape:window-y="-11"
     inkscape:window-maximized="1"
     inkscape:current-layer="svg1" />
  <path
     fill-rule="evenodd"
     clip-rule="evenodd"
     d="M 19.448276,4.862069 V 8.054201 C 19.448276,9.08256 16.113583,9.91627 12,9.91627 7.886416,9.91627 4.551724,9.08256 4.551724,8.054201 V 4.862069 C 4.551724,3.8336756 7.886416,3 12,3 c 4.113583,0 7.448276,0.8336756 7.448276,1.862069 z M 4.8601521,9.809909 C 5.775774,10.579068 8.625881,11.139972 12,11.139972 c 3.374118,0 6.224226,-0.560904 7.139867,-1.330063 0.200657,0.16853 0.308409,0.34709 0.308409,0.531956 v 3.192132 c 0,1.028359 -3.334693,1.862069 -7.448276,1.862069 -4.113584,0 -7.448276,-0.83371 -7.448276,-1.862069 v -3.192083 c 9.9e-6,-0.184866 0.1077666,-0.363475 0.3084281,-0.532005 z M 12,16.743857 c -3.374069,0 -6.224177,-0.560905 -7.139828,-1.330064 -0.2006814,0.168579 -0.308448,0.347139 -0.308448,0.532006 v 3.192132 C 4.551724,20.166339 7.886416,21 12,21 c 4.113583,0 7.448276,-0.833661 7.448276,-1.862069 v -3.192132 c 0,-0.184867 -0.107752,-0.363427 -0.308458,-0.532006 C 18.224176,16.182952 15.374069,16.743857 12,16.743857 Z m 4.137914,1.814747 c 0,0.319978 -0.259349,0.579327 -0.579277,0.579327 -0.319978,0 -0.579327,-0.259349 -0.579327,-0.579327 0,-0.319928 0.259349,-0.579277 0.579327,-0.579277 0.319928,0 0.579277,0.259349 0.579277,0.579277 z m 1.737931,0 c 0.319978,0 0.579327,-0.259349 0.579327,-0.579277 0,-0.319978 -0.259349,-0.579327 -0.579327,-0.579327 -0.319928,0 -0.579277,0.259349 -0.579277,0.579327 0,0.319928 0.259349,0.579277 0.579277,0.579277 z"
     fill="#333333"
     id="path1"
     style="stroke-width:0.496552;fill:#d7dbe4;fill-opacity:1" />
</svg>
