<?xml version="1.0" encoding="UTF-8" standalone="no"?>
<!-- Generator: Adobe Illustrator 16.0.0, SVG Export Plug-In . SVG Version: 6.00 Build 0)  -->

<svg
   version="1.1"
   id="Capa_1"
   x="0px"
   y="0px"
   width="24"
   height="24"
   viewBox="0 0 24 24"
   xml:space="preserve"
   sodipodi:docname="lock.svg"
   inkscape:version="1.3 (0e150ed6c4, 2023-07-21)"
   xmlns:inkscape="http://www.inkscape.org/namespaces/inkscape"
   xmlns:sodipodi="http://sodipodi.sourceforge.net/DTD/sodipodi-0.dtd"
   xmlns="http://www.w3.org/2000/svg"
   xmlns:svg="http://www.w3.org/2000/svg"><defs
   id="defs16" /><sodipodi:namedview
   id="namedview16"
   pagecolor="#505050"
   bordercolor="#eeeeee"
   borderopacity="1"
   inkscape:showpageshadow="0"
   inkscape:pageopacity="0"
   inkscape:pagecheckerboard="0"
   inkscape:deskcolor="#505050"
   inkscape:zoom="9.7580736"
   inkscape:cx="3.1768566"
   inkscape:cy="50.983424"
   inkscape:window-width="3840"
   inkscape:window-height="2054"
   inkscape:window-x="-11"
   inkscape:window-y="-11"
   inkscape:window-maximized="1"
   inkscape:current-layer="Capa_1" />&#10;<g
   id="g1"
   transform="matrix(0.036,0,0,0.036,3.000018,3)"
   style="fill:#d7dbe4;fill-opacity:1">&#10;	<path
   d="m 391.667,200 h -8.334 V 100 c 0,-55.141 -44.858,-100 -100,-100 h -66.667 c -55.141,0 -100,44.859 -100,100 v 100 h -8.333 c -13.75,0 -25,11.25 -25,25 v 250 c 0,13.75 11.25,25 25,25 h 283.333 c 13.75,0 25,-11.25 25,-25 V 225 c 10e-4,-13.75 -11.249,-25 -24.999,-25 z M 283.333,433.333 h -66.667 l 14.5,-72.5 c -8.754,-6.007 -14.5,-16.08 -14.5,-27.5 C 216.667,314.924 231.591,300 250,300 c 18.409,0 33.333,14.924 33.333,33.333 0,11.42 -5.745,21.493 -14.5,27.5 z M 316.667,200 H 183.333 V 100 c 0,-18.38 14.953,-33.333 33.333,-33.333 h 66.667 c 18.38,0 33.334,14.953 33.334,33.333 z"
   id="path1"
   style="fill:#d7dbe4;fill-opacity:1" />&#10;</g>&#10;&#10;&#10;&#10;&#10;&#10;&#10;&#10;&#10;&#10;&#10;&#10;&#10;&#10;&#10;&#10;</svg>
