<?xml version="1.0" encoding="UTF-8" standalone="no"?>
<svg
   version="1.1"
   id="mdi-progress-check"
   width="24"
   height="24"
   viewBox="0 0 24 24"
   sodipodi:docname="progress_check_icon.svg"
   inkscape:version="1.3 (0e150ed6c4, 2023-07-21)"
   xmlns:inkscape="http://www.inkscape.org/namespaces/inkscape"
   xmlns:sodipodi="http://sodipodi.sourceforge.net/DTD/sodipodi-0.dtd"
   xmlns="http://www.w3.org/2000/svg"
   xmlns:svg="http://www.w3.org/2000/svg">
  <defs
     id="defs1" />
  <sodipodi:namedview
     id="namedview1"
     pagecolor="#505050"
     bordercolor="#eeeeee"
     borderopacity="1"
     inkscape:showpageshadow="0"
     inkscape:pageopacity="0"
     inkscape:pagecheckerboard="0"
     inkscape:deskcolor="#505050"
     inkscape:zoom="25.41165"
     inkscape:cx="-7.8310539"
     inkscape:cy="9.9757395"
     inkscape:window-width="3840"
     inkscape:window-height="2054"
     inkscape:window-x="-11"
     inkscape:window-y="-11"
     inkscape:window-maximized="1"
     inkscape:current-layer="mdi-progress-check" />
  <path
     d="m 12.878567,3 v 0.018027 1.8027041 c 3.956935,0.4867301 6.76014,4.0831247 6.27341,8.0400599 -0.414622,3.280922 -2.992489,5.885829 -6.27341,6.27341 v 1.802704 c 4.957436,-0.495743 8.562844,-4.894341 8.0671,-9.851777 C 20.540059,6.8037056 17.141962,3.4236355 12.878567,3 M 11.075863,3.027041 C 9.3182267,3.1982974 7.6417119,3.8743115 6.2716568,5.010015 L 7.5605902,6.344016 C 8.5701045,5.5327992 9.7869298,5.010015 11.075863,4.8297446 V 3.0270406 M 5.0007505,6.2809214 C 3.8650469,7.6509765 3.1890329,9.3184777 3.0087625,11.085128 H 4.8114666 C 4.9827234,9.8052078 5.4874806,8.5883826 6.2896839,7.5698548 L 5.0007505,6.2809214 M 15.131947,8.8317476 10.733349,13.230346 8.8224831,11.319479 7.8670499,12.274912 10.733349,15.141212 16.08738,9.7871808 15.131947,8.8317476 M 3.017776,12.887832 c 0.1802704,1.76665 0.8743115,3.434151 1.991988,4.804206 L 6.2896839,16.403105 C 5.4964941,15.384577 4.9827234,14.167752 4.8204801,12.887832 H 3.017776 m 4.5428142,4.84026 -1.2889334,1.234852 C 7.6326984,20.098648 9.3092132,20.810716 11.075863,21 V 19.197296 C 9.7959433,19.035053 8.579118,18.521282 7.5605902,17.728092 Z"
     id="path1"
     style="stroke-width:0.901352;fill:#d7dbe4;fill-opacity:1" />
</svg>
