<?xml version="1.0" encoding="UTF-8" standalone="no"?>
<svg
   id="Layer_1"
   version="1.1"
   viewBox="0 0 24 24"
   xml:space="preserve"
   sodipodi:docname="right_and_down_arrow.svg"
   width="24"
   height="24"
   inkscape:version="1.3 (0e150ed6c4, 2023-07-21)"
   xmlns:inkscape="http://www.inkscape.org/namespaces/inkscape"
   xmlns:sodipodi="http://sodipodi.sourceforge.net/DTD/sodipodi-0.dtd"
   xmlns="http://www.w3.org/2000/svg"
   xmlns:svg="http://www.w3.org/2000/svg"><defs
     id="defs1" /><sodipodi:namedview
     id="namedview1"
     pagecolor="#505050"
     bordercolor="#eeeeee"
     borderopacity="1"
     inkscape:showpageshadow="0"
     inkscape:pageopacity="0"
     inkscape:pagecheckerboard="0"
     inkscape:deskcolor="#505050"
     inkscape:zoom="26.953125"
     inkscape:cx="-12.54029"
     inkscape:cy="24.653913"
     inkscape:window-width="3840"
     inkscape:window-height="2054"
     inkscape:window-x="-11"
     inkscape:window-y="-11"
     inkscape:window-maximized="1"
     inkscape:current-layer="Layer_1" /><path
     d="M 20.706222,6.8432982 C 19.586263,5.7233401 18.415397,4.5524753 17.29544,3.4325172 16.430017,2.5670951 15.004616,3.941589 15.920946,4.8070111 c 0.509071,0.5090718 1.069051,1.0690504 1.629029,1.6290299 -2.952616,0 -5.854325,0 -8.806942,0 -0.458165,0 -0.8654222,0 -1.2726794,0 -0.3054437,0 -0.5090719,0.1018136 -0.6617941,0.2545359 0,0 0,0 -0.050907,0.050907 -0.2036286,0.2036288 -0.3054423,0.407257 -0.3054423,0.6617928 0,3.0035233 0,6.0579553 0,9.0614783 0,0.356351 0,0.661794 0,1.069051 -0.5599797,-0.559978 -1.170866,-1.170865 -1.7817523,-1.781751 -0.8654222,-0.865423 -2.290823,0.509072 -1.374494,1.374494 1.1708658,1.170866 2.3417308,2.341731 3.410782,3.410781 0.4072573,0.407258 1.0181435,0.407258 1.3744939,0 1.1199581,-1.119958 2.2908232,-2.290823 3.4107812,-3.410781 0.865422,-0.865422 -0.509072,-2.290823 -1.374494,-1.374494 -0.5599796,0.559979 -1.1708649,1.170865 -1.7817513,1.781751 0,-2.952616 0,-5.905233 0,-8.9087565 0,-0.1018146 0,-0.2036291 0,-0.3054428 2.6980803,0 5.3452533,0 8.0942413,0 0.458165,0 0.814516,0 1.272681,0 -0.610887,0.6108863 -1.272681,1.2726794 -1.883566,1.8835663 -0.865422,0.865421 0.509072,2.290822 1.374493,1.374493 1.170866,-1.170866 2.34173,-2.3417303 3.410781,-3.4107815 0.509072,-0.3054427 0.509072,-0.916329 0.101816,-1.3235863 z"
     id="path1"
     style="fill:#d7dbe4;fill-opacity:1;stroke-width:0.509072" /></svg>
