<?xml version="1.0" encoding="UTF-8" standalone="no"?>
<svg
   viewBox="0 0 24 24"
   version="1.1"
   id="svg1"
   sodipodi:docname="rotate.svg"
   width="24"
   height="24"
   inkscape:version="1.3 (0e150ed6c4, 2023-07-21)"
   xmlns:inkscape="http://www.inkscape.org/namespaces/inkscape"
   xmlns:sodipodi="http://sodipodi.sourceforge.net/DTD/sodipodi-0.dtd"
   xmlns="http://www.w3.org/2000/svg"
   xmlns:svg="http://www.w3.org/2000/svg">
  <defs
     id="defs1" />
  <sodipodi:namedview
     id="namedview1"
     pagecolor="#505050"
     bordercolor="#eeeeee"
     borderopacity="1"
     inkscape:showpageshadow="0"
     inkscape:pageopacity="0"
     inkscape:pagecheckerboard="0"
     inkscape:deskcolor="#505050"
     inkscape:zoom="9.5293687"
     inkscape:cx="-35.99399"
     inkscape:cy="-23.978503"
     inkscape:window-width="3840"
     inkscape:window-height="2054"
     inkscape:window-x="-11"
     inkscape:window-y="-11"
     inkscape:window-maximized="1"
     inkscape:current-layer="svg1" />
  <!--! Font Awesome Free 6.0.0-beta2 by @fontawesome - https://fontawesome.com License - https://fontawesome.com/license/free (Icons: CC BY 4.0, Fonts: SIL OFL 1.1, Code: MIT License) -->
  <path
     d="M 19.27125,3.8979305 17.4525,5.717806 C 15.99375,4.394056 14.0775,3.5994307 12,3.5994307 c -3.5437499,0 -6.6528753,2.2627504 -7.7407501,5.6325004 -0.2039252,0.630375 0.142388,1.3079999 0.772875,1.5105009 0.6363749,0.20625 1.3072499,-0.14295 1.5112498,-0.7721259 C 7.3087505,7.5931804 9.5025001,5.9994306 12,5.9994306 c 1.423499,0 2.7375,0.5317502 3.7575,1.4175003 l -1.69125,1.6575003 c -0.6,0.6299997 -0.16125,1.7024998 0.72375,1.7249998 h 5.50875 C 20.68875,10.788181 21,10.473182 21,10.083181 V 4.6134312 C 21,3.7115563 19.90875,3.2600556 19.27125,3.8979305 Z M 18.9675,13.259432 c -0.63525,-0.203925 -1.308,0.14295 -1.51125,0.772125 -0.765001,2.374124 -2.95875,3.967875 -5.45625,3.967875 -1.4235,0 -2.7374998,-0.53175 -3.7575003,-1.4175 l 1.6575002,-1.6575 c 0.6337501,-0.63 0.1950001,-1.702501 -0.6899997,-1.725 h -5.51025 C 3.3119999,13.210682 3,13.525682 3,13.915681 v 5.471251 c 0,0.9015 1.0901252,1.353 1.727625,0.715125 l 1.8187497,-1.819875 c 1.4598756,1.322249 3.3761252,2.11725 5.4198753,2.11725 3.541875,0 6.6525,-2.26275 7.74,-5.6325 0.24,-0.63 -0.10875,-1.33875 -0.73875,-1.5075 z"
     id="path1"
     style="fill:#d7dbe4;fill-opacity:1;stroke-width:0.0375" />
</svg>
