<?xml version="1.0" encoding="UTF-8" standalone="no"?>
<svg
   version="1.1"
   viewBox="0 0 24 24"
   id="svg1"
   sodipodi:docname="settings.svg"
   inkscape:version="1.3 (0e150ed6c4, 2023-07-21)"
   xmlns:inkscape="http://www.inkscape.org/namespaces/inkscape"
   xmlns:sodipodi="http://sodipodi.sourceforge.net/DTD/sodipodi-0.dtd"
   xmlns="http://www.w3.org/2000/svg"
   xmlns:svg="http://www.w3.org/2000/svg">
  <defs
     id="defs1" />
  <sodipodi:namedview
     id="namedview1"
     pagecolor="#505050"
     bordercolor="#eeeeee"
     borderopacity="1"
     inkscape:showpageshadow="0"
     inkscape:pageopacity="0"
     inkscape:pagecheckerboard="0"
     inkscape:deskcolor="#505050"
     inkscape:zoom="17.96875"
     inkscape:cx="-23.373913"
     inkscape:cy="7.04"
     inkscape:window-width="3840"
     inkscape:window-height="2054"
     inkscape:window-x="-11"
     inkscape:window-y="-11"
     inkscape:window-maximized="1"
     inkscape:current-layer="svg1" />
  <path
     d="m 20.14599,14.171391 -0.848515,-1.07721 C 19.352615,12.733683 19.378055,12.3647 19.378055,12 c 0,-0.3647 -0.02545,-0.733764 -0.08058,-1.094181 L 20.14599,9.8286089 c 0.352013,-0.4453493 0.394438,-1.052159 0.110307,-1.5394492 L 19.344749,6.7117293 C 19.060537,6.219752 18.513204,5.9567931 17.953184,6.0373616 L 16.595559,6.2324393 C 16.018731,5.7744027 15.382587,5.405743 14.699734,5.1382586 L 14.190786,3.8654856 C 13.978738,3.3395678 13.478195,3 12.909932,3 H 11.090068 C 10.521725,3 10.020939,3.3393253 9.8092144,3.8654856 L 9.3002668,5.1382586 C 8.617414,5.4055005 7.9814315,5.7744835 7.4044411,6.2324393 L 6.0468166,6.0373616 C 5.4869581,5.9567769 4.9397061,6.219752 4.6552515,6.7117293 L 3.7437036,8.2891597 C 3.4594914,8.7811369 3.5019171,9.3833404 3.8540106,9.8286089 L 4.7025259,10.905819 C 4.6473886,11.266317 4.6219412,11.6353 4.6219412,12 c 0,0.3647 0.025447,0.733764 0.080585,1.094181 l -0.8485153,1.07721 C 3.5019979,14.61674 3.4595722,15.22355 3.7437036,15.71084 l 0.9115479,1.577431 c 0.2842122,0.491977 0.8266963,0.754936 1.3915651,0.674367 l 1.3576245,-0.195077 c 0.5768288,0.458036 1.2129729,0.826696 1.8958257,1.09418 l 0.5089476,1.272773 C 10.021262,20.660432 10.521806,21 11.090068,21 h 1.819864 c 0.568344,0 1.069129,-0.339325 1.280854,-0.865486 l 0.508948,-1.272773 c 0.682853,-0.267242 1.318835,-0.636224 1.895825,-1.09418 l 1.357625,0.195077 c 0.559858,0.08058 1.10711,-0.18239 1.391565,-0.674367 l 0.911548,-1.577431 c 0.284212,-0.487775 0.241786,-1.09418 -0.110307,-1.539449 z M 15.484812,12 c 0,1.921685 -1.56046,3.482145 -3.482145,3.482145 -1.921685,0 -3.4821454,-1.56046 -3.4821454,-3.482145 0,-1.921685 1.5604604,-3.4821453 3.4821454,-3.4821453 1.921685,0 3.482145,1.5604603 3.482145,3.4821453 z"
     fill="#d7dbe4"
     stroke-width="0.0424177"
     id="path1" />
</svg>
