<?xml version="1.0" encoding="UTF-8" standalone="no"?>
<svg
   enable-background="new 0 0 32 32"
   id="Glyph"
   version="1.1"
   viewBox="0 0 24 24"
   xml:space="preserve"
   sodipodi:docname="trash-can.svg"
   width="24"
   height="24"
   inkscape:version="1.3 (0e150ed6c4, 2023-07-21)"
   xmlns:inkscape="http://www.inkscape.org/namespaces/inkscape"
   xmlns:sodipodi="http://sodipodi.sourceforge.net/DTD/sodipodi-0.dtd"
   xmlns="http://www.w3.org/2000/svg"
   xmlns:svg="http://www.w3.org/2000/svg"><defs
     id="defs1" /><sodipodi:namedview
     id="namedview1"
     pagecolor="#505050"
     bordercolor="#eeeeee"
     borderopacity="1"
     inkscape:showpageshadow="0"
     inkscape:pageopacity="0"
     inkscape:pagecheckerboard="0"
     inkscape:deskcolor="#505050"
     inkscape:zoom="13.476563"
     inkscape:cx="-6.604058"
     inkscape:cy="5.3797101"
     inkscape:window-width="3840"
     inkscape:window-height="2054"
     inkscape:window-x="-11"
     inkscape:window-y="-11"
     inkscape:window-maximized="1"
     inkscape:current-layer="Glyph" /><g
     id="g1"
     transform="matrix(0.64285714,0,0,0.64285714,1.7142858,1.7142858)"
     style="fill:#d7dbe4;fill-opacity:1"><path
       d="M 27,6 H 21 V 5 C 21,3.346 19.654,2 18,2 H 14 C 12.346,2 11,3.346 11,5 V 6 H 5 C 3.897,6 3,6.897 3,8 v 1 c 0,0.552 0.448,1 1,1 h 24 c 0.552,0 1,-0.448 1,-1 V 8 C 29,6.897 28.103,6 27,6 Z M 13,5 c 0,-0.551 0.449,-1 1,-1 h 4 c 0.551,0 1,0.449 1,1 v 1 h -6 z"
       id="XMLID_246_"
       style="fill:#d7dbe4;fill-opacity:1" /><path
       d="m 6,12 v 15 c 0,1.654 1.346,3 3,3 h 14 c 1.654,0 3,-1.346 3,-3 V 12 Z m 13.707,10.293 c 0.391,0.391 0.391,1.023 0,1.414 -0.391,0.391 -1.023,0.391 -1.414,0 L 16,21.414 13.707,23.707 c -0.391,0.391 -1.023,0.391 -1.414,0 -0.391,-0.391 -0.391,-1.023 0,-1.414 L 14.586,20 12.293,17.707 c -0.391,-0.391 -0.391,-1.023 0,-1.414 0.391,-0.391 1.023,-0.391 1.414,0 L 16,18.586 18.293,16.293 c 0.391,-0.391 1.023,-0.391 1.414,0 0.391,0.391 0.391,1.023 0,1.414 L 17.414,20 Z"
       id="XMLID_249_"
       style="fill:#d7dbe4;fill-opacity:1" /></g></svg>
