<?xml version="1.0" encoding="UTF-8" standalone="no"?>
<!-- Generator: Adobe Illustrator 16.0.0, SVG Export Plug-In . SVG Version: 6.00 Build 0)  -->

<svg
   version="1.1"
   id="Capa_1"
   x="0px"
   y="0px"
   width="24"
   height="24"
   viewBox="0 0 24 24"
   xml:space="preserve"
   sodipodi:docname="unlock.svg"
   inkscape:version="1.3 (0e150ed6c4, 2023-07-21)"
   xmlns:inkscape="http://www.inkscape.org/namespaces/inkscape"
   xmlns:sodipodi="http://sodipodi.sourceforge.net/DTD/sodipodi-0.dtd"
   xmlns="http://www.w3.org/2000/svg"
   xmlns:svg="http://www.w3.org/2000/svg"><defs
   id="defs16" /><sodipodi:namedview
   id="namedview16"
   pagecolor="#505050"
   bordercolor="#eeeeee"
   borderopacity="1"
   inkscape:showpageshadow="0"
   inkscape:pageopacity="0"
   inkscape:pagecheckerboard="0"
   inkscape:deskcolor="#505050"
   inkscape:zoom="27.6"
   inkscape:cx="2.3550725"
   inkscape:cy="9.8007247"
   inkscape:window-width="3840"
   inkscape:window-height="2054"
   inkscape:window-x="-11"
   inkscape:window-y="-11"
   inkscape:window-maximized="1"
   inkscape:current-layer="Capa_1"
   showguides="true"><sodipodi:guide
     position="5.9950358,8.8330719"
     orientation="1,0"
     id="guide16"
     inkscape:locked="false" /><sodipodi:guide
     position="18.043478,13.601449"
     orientation="1,0"
     id="guide17"
     inkscape:locked="false" /></sodipodi:namedview>&#10;<g
   id="g1"
   transform="matrix(0.036,0,0,0.036,6.0214822,3.1024792)"
   style="fill:#d7dbe4;fill-opacity:1">&#10;	<path
   d="m 400,0 h -66.667 c -55.141,0 -100,44.859 -100,100 V 200 H 25 C 11.25,200 0,211.25 0,225 v 250 c 0,13.75 11.25,25 25,25 h 283.333 c 13.751,0 25,-11.25 25,-25 V 225 c 0,-13.75 -11.249,-25 -25,-25 H 300 V 100 c 0,-18.38 14.953,-33.333 33.333,-33.333 H 400 c 18.38,0 33.333,14.953 33.333,33.333 V 200 H 500 V 100 C 500,44.859 455.141,0 400,0 Z M 200,433.333 h -66.667 l 14.5,-72.5 c -8.754,-6.007 -14.5,-16.08 -14.5,-27.5 0,-18.409 14.924,-33.333 33.333,-33.333 18.409,0 33.334,14.924 33.334,33.333 0,11.42 -5.746,21.493 -14.5,27.5 z"
   id="path1"
   style="fill:#d7dbe4;fill-opacity:1" />&#10;</g>&#10;&#10;&#10;&#10;&#10;&#10;&#10;&#10;&#10;&#10;&#10;&#10;&#10;&#10;&#10;&#10;</svg>
