<?xml version="1.0" encoding="UTF-8" standalone="no"?>
<svg
   data-name="Layer 1"
   id="Layer_1"
   viewBox="0 0 24 24"
   version="1.1"
   sodipodi:docname="upgrade.svg"
   width="24"
   height="24"
   inkscape:version="1.3 (0e150ed6c4, 2023-07-21)"
   xmlns:inkscape="http://www.inkscape.org/namespaces/inkscape"
   xmlns:sodipodi="http://sodipodi.sourceforge.net/DTD/sodipodi-0.dtd"
   xmlns="http://www.w3.org/2000/svg"
   xmlns:svg="http://www.w3.org/2000/svg">
  <defs
     id="defs1" />
  <sodipodi:namedview
     id="namedview1"
     pagecolor="#505050"
     bordercolor="#eeeeee"
     borderopacity="1"
     inkscape:showpageshadow="0"
     inkscape:pageopacity="0"
     inkscape:pagecheckerboard="0"
     inkscape:deskcolor="#505050"
     inkscape:zoom="26.953125"
     inkscape:cx="-1.6324638"
     inkscape:cy="15.230145"
     inkscape:window-width="3840"
     inkscape:window-height="2054"
     inkscape:window-x="-11"
     inkscape:window-y="-11"
     inkscape:window-maximized="1"
     inkscape:current-layer="Layer_1" />
  <title
     id="title1" />
  <g
     id="g70"
     transform="matrix(0.05118632,0,0,0.05118632,-2.1242699,-4.584509)">
    <path
       id="path2"
       style="font-variation-settings:'BEVL' 80, 'wght' 400;fill:#27ff35;fill-opacity:1;fill-rule:evenodd;stroke-width:2.05512;stroke-linecap:round;stroke-linejoin:round;paint-order:stroke fill markers"
       d="m 275.80624,148.17474 c -0.0506,0 -0.19485,0.10315 -0.25977,0.11914 -0.13842,0.0454 -0.2811,0.0975 -0.45898,0.1875 -0.73285,0.0731 -1.41162,0.23052 -1.86524,0.48437 -0.32507,0.18192 -2.12417,1.85138 -4.49218,4.09571 -3.93342,3.49968 -9.88027,9.36399 -19.9375,19.37304 -0.84851,0.84444 -1.11354,1.11564 -1.94141,1.93946 -0.25736,0.2539 -0.57444,0.56997 -0.83399,0.82617 -4.22196,4.16137 -8.63858,8.51874 -14.01367,13.89453 -2.1713,2.15496 -4.22911,4.19744 -6.39453,6.36523 -6.26781,6.2561 -12.36263,12.39385 -18.42187,18.50586 -11.96977,11.99787 -21.78916,21.98041 -22.66211,23.35938 -0.59908,0.94634 -0.90498,1.95901 -0.99219,2.97656 v 0.002 c -0.028,0.078 -0.10352,0.20054 -0.10352,0.25196 0,0.0926 0.0487,0.22016 0.0586,0.32031 5.1e-4,0.0818 0.008,0.16241 0.0117,0.24414 -0.0233,0.11299 -0.0459,0.22673 -0.0605,0.33594 -0.68834,2.49771 0.96315,3.47793 3.11914,5.17383 0.46532,0.36601 0.92179,0.66175 1.40234,0.92773 2.16398,1.46398 5.37761,1.5332 19.75391,1.5332 h 0.21289 18.24219 v 92.5586 0.0469 2.96875 h 99.73047 v -1.75195 -0.0723 -0.0684 -0.0801 -0.39063 -0.0801 -92.9707 l 8.36523,-0.16016 h 9.87695 c 11.70478,0 16.05805,-0.12252 18.62891,-0.96484 2.58012,-0.36913 3.46016,-0.94017 4.18555,-1.93359 0.0143,-0.0196 0.021,-0.0352 0.0351,-0.0547 0.0968,-0.10442 0.20443,-0.20269 0.28907,-0.31445 8.6e-4,-0.001 9.5e-4,-0.003 0.002,-0.004 0.003,-0.003 0.003,-0.008 0.006,-0.0117 0.13329,-0.17754 0.19518,-0.40866 0.30078,-0.60547 0.47059,-0.71609 0.87415,-1.42618 0.97852,-2.19336 0.0397,-0.21512 0.0277,-0.4585 0.0195,-0.69726 -0.006,-0.11729 -0.003,-0.23275 -0.0195,-0.35547 -0.0229,-0.17437 -0.0433,-0.34992 -0.0918,-0.53907 -0.003,-0.20561 7.9e-4,-0.4096 -0.0176,-0.62109 -9e-5,-0.001 10e-5,-0.003 0,-0.004 -0.0447,-0.51287 -0.12495,-1.03819 -0.26367,-1.58203 -0.0204,-0.0798 -0.32219,-0.43811 -0.46484,-0.63867 -0.50106,-0.97496 -1.59916,-2.38829 -2.95118,-3.98633 -1.853,-2.29051 -4.34251,-5.12854 -8.53125,-9.66992 -5.8183,-6.30813 -15.2363,-15.84365 -25.3789,-25.95117 -1.99154,-2.00158 -3.94539,-3.90176 -5.97266,-5.91992 -13.12732,-13.11503 -27.05328,-26.76771 -37.1582,-36.30469 -1.49121,-1.4074 -2.87351,-2.64246 -4.14649,-3.72461 -1.41203,-1.294 -2.25247,-2.01172 -3.02343,-2.6543 -0.14551,-0.11909 -0.57673,-0.52556 -0.66602,-0.58789 -0.0295,-0.0206 -0.0676,-0.0326 -0.0977,-0.0527 -0.17324,-0.13149 -0.67286,-0.59433 -0.76953,-0.64843 -0.0366,-0.0205 -0.0921,-0.0312 -0.13086,-0.0508 -0.0105,-0.006 -0.0645,-0.057 -0.0742,-0.0625 -0.24482,-0.13717 -0.55236,-0.24836 -0.89648,-0.33399 -10e-4,-2.9e-4 -0.003,2.9e-4 -0.004,0 -0.23997,-0.06 -0.51433,-0.0898 -0.7832,-0.12304 -0.40386,-0.16856 -0.75981,-0.27914 -1.04492,-0.30079 -0.0154,-8.4e-4 -0.0517,-0.0254 -0.0664,-0.0254 -0.002,0 -0.008,0.004 -0.01,0.004 -0.002,-1e-5 -0.008,-0.004 -0.01,-0.004 -0.003,0 -0.0122,0.006 -0.0156,0.006 -0.01,-2e-4 -0.0253,-0.006 -0.0352,-0.006 -0.0229,0 -0.0669,0.0231 -0.0918,0.0254 -0.0148,-0.001 -0.0527,-0.0254 -0.0664,-0.0254 z" />
    <path
       id="path34"
       style="font-variation-settings:'BEVL' 80, 'wght' 400;fill:#27ff35;fill-opacity:1;fill-rule:evenodd;stroke-width:2.05512;stroke-linecap:round;stroke-linejoin:round;paint-order:stroke fill markers"
       d="m 275.82772,366.3388 c -15.3969,-10e-4 -30.54993,0.0233 -38.11133,0.0742 h -5.3125 l -0.75586,0.24023 c -0.0423,0.0113 -0.0846,0.0171 -0.12695,0.0293 -0.002,5.8e-4 -0.006,0.001 -0.008,0.002 -0.0375,0.0114 -0.0721,0.0291 -0.10938,0.041 -0.003,7.8e-4 -0.005,0.001 -0.008,0.002 -0.0726,0.0219 -0.14271,0.0519 -0.21484,0.0762 -0.19955,0.0684 -0.3987,0.1365 -0.59571,0.22266 -0.0226,0.01 -0.0439,0.0214 -0.0664,0.0312 -0.009,0.004 -0.018,0.01 -0.0273,0.0137 -0.0403,0.0176 -0.079,0.0365 -0.11914,0.0547 -0.10281,0.0483 -0.20359,0.0995 -0.30468,0.15234 -0.0932,0.0486 -0.18743,0.0923 -0.2793,0.14453 -0.0377,0.021 -0.078,0.0391 -0.11524,0.0605 -0.0435,0.0251 -0.0878,0.0483 -0.13085,0.0742 -0.35931,0.21015 -0.70532,0.43868 -1.01954,0.69141 -0.24225,0.19484 -0.49469,0.45111 -0.74609,0.73828 -0.47788,0.49489 -0.89088,1.03428 -1.19531,1.60547 l -0.002,0.002 c -0.0559,0.10481 -0.0971,0.18086 -0.14648,0.26953 -0.059,0.10602 -0.12542,0.22239 -0.17578,0.32227 v 0.002 c -0.0925,0.18358 -0.17177,0.37192 -0.23828,0.62305 v 0.002 c -0.006,0.0241 -0.009,0.0704 -0.0156,0.0957 v 0.002 l -0.27734,0.73632 -0.006,3.40821 c -0.002,0.14061 -0.004,0.32075 -0.006,0.47265 -0.007,0.53476 -0.0159,1.24694 -0.0215,1.94727 -0.001,0.19167 -0.003,0.35379 -0.004,0.55664 -0.0193,2.24508 -0.0346,5.64723 -0.0352,9.73437 -0.0164,5.01337 -0.0143,9.59446 0.006,14.55469 0.001,3.09086 0.0133,5.96792 0.0254,7.90039 0.008,1.98562 0.0198,3.76236 0.0371,4.85742 l 0.004,2.42579 0.23242,0.67187 c 0.0185,0.0721 0.0351,0.14913 0.0566,0.21484 0.0114,0.0349 0.0361,0.0776 0.0488,0.11329 0.0326,0.0878 0.0724,0.17476 0.10937,0.26367 0.0172,0.0411 0.0402,0.0885 0.0586,0.1289 0.0674,0.16263 0.13865,0.32291 0.21679,0.48047 0.0283,0.056 0.0581,0.11057 0.0879,0.16602 0.002,0.004 0.004,0.008 0.006,0.0117 0.0189,0.0349 0.0353,0.0687 0.0547,0.10351 0.0816,0.14912 0.16678,0.2958 0.25782,0.43946 0.23995,0.40461 0.49079,0.7879 0.74414,1.08398 0.37454,0.43771 0.88524,0.84562 1.43164,1.22266 0.001,8.5e-4 0.003,10e-4 0.004,0.002 0.0491,0.0338 0.0985,0.0666 0.14844,0.0996 0.0506,0.0324 0.0906,0.0677 0.14258,0.0996 0.005,0.004 0.0102,0.008 0.0156,0.0117 0.0225,0.0137 0.0477,0.0274 0.0703,0.041 0.15152,0.0941 0.29295,0.19174 0.44921,0.27735 0.0537,0.0302 0.10988,0.0531 0.16407,0.082 0.18572,0.10043 0.37389,0.18757 0.56445,0.27148 0.091,0.0397 0.18136,0.0792 0.27344,0.11524 0.0901,0.036 0.17806,0.0793 0.26758,0.11132 0.004,0.002 0.009,0.004 0.0137,0.006 h 0.002 c 0.004,0.002 0.007,0.002 0.0117,0.004 0.0403,0.0138 0.0807,0.0241 0.12109,0.0371 0.27865,0.093 0.55076,0.16679 0.8125,0.21484 0.0328,0.006 0.0734,0.0246 0.10547,0.0293 5.5e-4,8e-5 0.0326,-8e-5 0.0332,0 0.008,10e-4 0.0172,0.005 0.0254,0.006 0.006,8.3e-4 0.13937,10e-4 0.14843,0.002 0.0743,0.0108 0.14825,0.0328 0.22266,0.041 0.001,1.3e-4 0.0533,-1.4e-4 0.0547,0 0.007,8.3e-4 0.0129,0.003 0.0195,0.004 0.44319,0.0543 15.52899,0.0719 32.38281,0.0723 7.09473,0.005 13.06665,0.006 20.25195,0 7.29706,-0.004 14.93876,-0.004 20.60547,-0.0195 2.39815,-0.006 3.96798,-0.0159 5.85352,-0.0234 l 4.82422,-0.002 3.78906,-0.002 h 0.14844 l 0.96679,-0.37696 c 0.34956,-0.13631 0.68718,-0.29781 1.01368,-0.47656 0.0682,-0.0373 0.13185,-0.0837 0.19921,-0.12305 0.24979,-0.14552 0.49565,-0.29506 0.72852,-0.46289 0.0248,-0.0176 0.0458,-0.0388 0.0703,-0.0566 0.0242,-0.018 0.0463,-0.0383 0.0703,-0.0566 0.0816,-0.0572 0.17134,-0.10663 0.25,-0.16602 0.0818,-0.0618 0.16828,-0.161 0.25195,-0.23437 0.0415,-0.0361 0.0862,-0.0686 0.12695,-0.10547 0.0796,-0.0712 0.15004,-0.14896 0.22656,-0.22266 0.0176,-0.017 0.0353,-0.0337 0.0527,-0.0508 0.0516,-0.0544 0.10095,-0.10079 0.15234,-0.1582 0.0411,-0.0423 0.083,-0.0839 0.12305,-0.12695 0.037,-0.0392 0.0772,-0.0755 0.11328,-0.11524 0.12269,-0.1371 0.23352,-0.2803 0.3457,-0.42383 0.0995,-0.12606 0.1992,-0.25053 0.28907,-0.38085 0.0975,-0.14134 0.1824,-0.28746 0.26953,-0.4336 0.0434,-0.0743 0.0968,-0.14546 0.13672,-0.2207 0.0361,-0.068 0.0624,-0.11844 0.0957,-0.17969 0.0185,-0.0354 0.0388,-0.0699 0.0566,-0.10547 0.012,-0.0243 0.0254,-0.0479 0.0371,-0.0723 0.099,-0.18605 0.18422,-0.40204 0.25781,-0.61719 0.0116,-0.0301 0.024,-0.0596 0.0352,-0.0898 0.0205,-0.0567 0.0416,-0.11291 0.0605,-0.16993 0.008,-0.0245 0.0119,-0.0497 0.0195,-0.0742 0.0279,-0.0871 0.0461,-0.17586 0.0703,-0.26368 l 0.21289,-0.61718 v -2.68946 c 0.0153,-1.12722 0.0284,-2.61501 0.0391,-4.43554 9.5e-4,-0.13645 0.003,-0.20443 0.004,-0.34375 1.3e-4,-0.0146 -1.4e-4,-0.0381 0,-0.0527 0.01,-1.55064 0.0211,-3.81225 0.0234,-6.0332 0.0258,-5.48351 0.0251,-10.88779 0.004,-16.58008 -3.2e-4,-2.23474 0.003,-5.15431 -0.002,-6.7832 -1.1e-4,-0.0347 10e-5,-0.0749 0,-0.10938 -0.003,-1.0757 -0.0226,-1.39804 -0.0293,-2.24609 -6e-5,-0.009 6e-5,-0.0356 0,-0.0449 -2e-5,-0.003 3e-5,-0.005 0,-0.008 -0.01,-1.46454 -0.0217,-3.18342 -0.0391,-4.00586 v -2.52539 l -0.26367,-0.66406 c -0.1364,-0.59884 -0.32514,-0.89485 -0.59375,-1.40234 -0.0679,-0.1283 -0.15647,-0.24976 -0.23438,-0.375 v -0.002 c -7.6e-4,-0.001 -10e-4,-0.003 -0.002,-0.004 -0.006,-0.009 -0.0118,-0.0182 -0.0176,-0.0274 -0.15544,-0.24665 -0.32748,-0.48505 -0.51758,-0.71679 -0.001,-0.002 -0.002,-0.004 -0.004,-0.006 -10e-4,-0.001 -0.005,-0.004 -0.006,-0.006 -0.0135,-0.0164 -0.0273,-0.0325 -0.041,-0.0488 -0.023,-0.0275 -0.043,-0.0568 -0.0664,-0.084 -0.0122,-0.0141 -0.0229,-0.0289 -0.0352,-0.043 -0.009,-0.0106 -0.0182,-0.0226 -0.0273,-0.0332 l -0.002,-0.002 -0.002,-0.002 c -0.16052,-0.18136 -0.33318,-0.35268 -0.51172,-0.52149 -0.0856,-0.0834 -0.16659,-0.17051 -0.25586,-0.25 -0.10305,-0.0916 -0.2148,-0.17146 -0.32227,-0.25781 h -0.002 c -0.0606,-0.0486 -0.11968,-0.0996 -0.18164,-0.14648 -0.0506,-0.0384 -0.0968,-0.0819 -0.14844,-0.11914 -0.0683,-0.0492 -0.13915,-0.0936 -0.20898,-0.14063 -0.005,-0.003 -0.009,-0.007 -0.0137,-0.01 -0.0454,-0.0306 -0.0848,-0.0699 -0.13086,-0.0996 h -0.002 c -0.0731,-0.0471 -0.15398,-0.0802 -0.22851,-0.125 -0.0799,-0.0478 -0.15627,-0.0992 -0.23828,-0.14454 -0.0963,-0.053 -0.19654,-0.0974 -0.29492,-0.14648 -0.0618,-0.031 -0.11911,-0.0702 -0.18164,-0.0996 l -0.002,-0.002 c -0.0309,-0.0145 -0.0588,-0.0347 -0.0898,-0.0488 h -0.002 c -0.0449,-0.0204 -0.0934,-0.0312 -0.13868,-0.0508 -0.0539,-0.0237 -0.10739,-0.0476 -0.16211,-0.0703 -0.0258,-0.0109 -0.0503,-0.0266 -0.0762,-0.0371 -0.12758,-0.052 -0.25796,-0.0881 -0.38672,-0.13282 -0.1326,-0.0471 -0.2597,-0.10066 -0.39648,-0.14257 -9.2e-4,-2.8e-4 -0.003,2.8e-4 -0.004,0 -0.0119,-0.004 -0.0365,-0.006 -0.0488,-0.01 -0.0118,-0.003 -0.0234,-0.009 -0.0351,-0.0117 h -0.002 c -0.2921,-0.0792 -0.58442,-0.13688 -0.875,-0.17383 -0.006,-7.4e-4 -0.12053,-10e-4 -0.12891,-0.002 -0.007,-7.7e-4 -0.0129,-0.003 -0.0195,-0.004 -0.21352,-0.0243 -1.71961,-0.0462 -4.1875,-0.0645 -2.45521,-0.018 -5.87748,-0.0331 -9.92578,-0.0449 -8.24609,-0.0246 -19.09803,-0.0374 -29.94727,-0.0371 z" />
    <path
       id="path42"
       style="font-variation-settings:'BEVL' 80, 'wght' 400;fill:#27ff35;fill-opacity:1;fill-rule:evenodd;stroke-width:2.05512;stroke-linecap:round;stroke-linejoin:round;paint-order:stroke fill markers"
       d="m 229.86678,442.84271 -1.84765,2.63867 c -1.52152,2.17226 -1.84961,6.78878 -1.84961,26.11914 0,21.89772 0.16059,23.64105 2.375,25.85547 2.29155,2.29159 3.95775,2.375 47.69336,2.375 40.50335,0 45.54975,-0.20875 47.49023,-1.96485 0.24613,-0.22273 0.46425,-0.45758 0.6582,-0.73828 0.0967,-0.14038 0.18855,-0.29197 0.27344,-0.46094 v -0.002 c 0.17104,-0.33949 0.31771,-0.7451 0.44532,-1.25586 0.44587,-1.78475 0.64639,-4.87605 0.73242,-10.81836 0.0485,-3.34869 0.0625,-7.58011 0.0625,-13.04687 v -0.14063 -0.16601 c 0,-20.8382 -0.29087,-24.95298 -1.86719,-26.5293 -0.53672,-0.53672 -1.57856,-0.91964 -4.12891,-1.19531 -0.003,-4.2e-4 -0.006,-0.002 -0.01,-0.002 -4.66098,-0.5851 -15.67673,-0.65785 -41.79688,-0.66211 -0.84676,-1.4e-4 -1.20019,-0.006 -2.08008,-0.006 h -0.0996 z" />
  </g>
</svg>
