<?xml version="1.0" encoding="UTF-8" standalone="no"?>
<svg
   viewBox="0 0 24 24"
   version="1.1"
   id="svg1"
   sodipodi:docname="word_uq.svg"
   width="24"
   height="24"
   inkscape:version="1.3 (0e150ed6c4, 2023-07-21)"
   xmlns:inkscape="http://www.inkscape.org/namespaces/inkscape"
   xmlns:sodipodi="http://sodipodi.sourceforge.net/DTD/sodipodi-0.dtd"
   xmlns="http://www.w3.org/2000/svg"
   xmlns:svg="http://www.w3.org/2000/svg">
  <defs
     id="defs1" />
  <sodipodi:namedview
     id="namedview1"
     pagecolor="#505050"
     bordercolor="#eeeeee"
     borderopacity="1"
     inkscape:showpageshadow="0"
     inkscape:pageopacity="0"
     inkscape:pagecheckerboard="0"
     inkscape:deskcolor="#505050"
     inkscape:zoom="13.476562"
     inkscape:cx="20.183189"
     inkscape:cy="17.548986"
     inkscape:window-width="3840"
     inkscape:window-height="2054"
     inkscape:window-x="-11"
     inkscape:window-y="-11"
     inkscape:window-maximized="1"
     inkscape:current-layer="svg1" />
  <!--! Font Awesome Free 6.0.0-beta2 by @fontawesome - https://fontawesome.com License - https://fontawesome.com/license/free (Icons: CC BY 4.0, Fonts: SIL OFL 1.1, Code: MIT License) -->
  <path
     d="m 6.6586002,19.744912 c 2.1836773,0 3.9387828,-1.224492 3.9387828,-4.857152 V 4.4999869 H 8.7810529 V 14.948985 c 0,2.387759 -0.9387771,3.163271 -2.1224527,3.163271 -1.1020428,0 -1.9795953,-0.775512 -1.9795953,-3.163271 V 4.4999869 H 2.7810423 V 14.88776 c 0,3.63266 1.6734724,4.857152 3.8775579,4.857152 z M 16.8627,18.193889 c -1.448982,0 -2.408168,-1.877555 -2.408168,-6.265318 0,-4.3061296 0.959186,-6.0204184 2.408168,-6.0204184 1.448982,0 2.408167,1.7142888 2.408167,6.0204184 0,4.387763 -0.959185,6.265318 -2.408167,6.265318 z m 3.142863,5.081641 c 0.612246,0 1.183675,-0.142857 1.510206,-0.326531 l -0.367347,-1.408166 c -0.265307,0.102041 -0.57143,0.183674 -0.979594,0.183674 -1.102043,0 -1.938779,-0.714287 -2.346943,-2.102044 2.04082,-0.591838 3.387761,-3.122455 3.387761,-7.693892 0,-5.2040904 -1.775513,-7.6734825 -4.346946,-7.6734825 -2.571433,0 -4.346947,2.4693921 -4.346947,7.6734825 0,4.65307 1.387758,7.204095 3.489802,7.7143 0.632655,2.142861 1.959188,3.632659 4.000008,3.632659 z"
     id="text2"
     style="font-size:20.4082px;font-family:'思源黑體 香港 HW';-inkscape-font-specification:'思源黑體 香港 HW, @BEVL=80.0,wght=400';font-variation-settings:'BEVL' 80, 'wght' 400;letter-spacing:0px;fill:#4577e9;stroke:#d7dbe4;stroke-width:0;stroke-linecap:round;stroke-linejoin:round;paint-order:stroke fill markers"
     aria-label="UQ" />
</svg>
