<?xml version="1.0" encoding="UTF-8" standalone="no"?>
<svg
   viewBox="0 0 24 24"
   version="1.1"
   id="svg1"
   sodipodi:docname="word_nn.svg"
   width="24"
   height="24"
   inkscape:version="1.3 (0e150ed6c4, 2023-07-21)"
   xmlns:inkscape="http://www.inkscape.org/namespaces/inkscape"
   xmlns:sodipodi="http://sodipodi.sourceforge.net/DTD/sodipodi-0.dtd"
   xmlns="http://www.w3.org/2000/svg"
   xmlns:svg="http://www.w3.org/2000/svg">
  <defs
     id="defs1" />
  <sodipodi:namedview
     id="namedview1"
     pagecolor="#505050"
     bordercolor="#eeeeee"
     borderopacity="1"
     inkscape:showpageshadow="0"
     inkscape:pageopacity="0"
     inkscape:pagecheckerboard="0"
     inkscape:deskcolor="#505050"
     inkscape:zoom="13.476562"
     inkscape:cx="20.183189"
     inkscape:cy="17.548986"
     inkscape:window-width="3840"
     inkscape:window-height="2054"
     inkscape:window-x="-11"
     inkscape:window-y="-11"
     inkscape:window-maximized="1"
     inkscape:current-layer="svg1" />
  <!--! Font Awesome Free 6.0.0-beta2 by @fontawesome - https://fontawesome.com License - https://fontawesome.com/license/free (Icons: CC BY 4.0, Fonts: SIL OFL 1.1, Code: MIT License) -->
  <path
     d="m 3.0612087,19.500013 h 1.5918395 v -7.857156 c 0,-1.530615 -0.1428573,-3.1836795 -0.2244901,-4.6938862 h 0.081633 L 5.551009,10.234691 8.7959127,19.500013 H 10.734692 V 4.4999869 H 9.1428521 v 7.8571571 c 0,1.530615 0.1428574,3.224495 0.2244902,4.693885 H 9.2857095 L 8.2857077,13.806126 4.9999876,4.4999869 H 3.0612087 Z m 10.2040993,0 h 1.59184 v -7.857156 c 0,-1.530615 -0.142857,-3.1836795 -0.22449,-4.6938862 h 0.08163 l 1.040818,3.2857202 3.244903,9.265322 h 1.938779 V 4.4999869 h -1.591839 v 7.8571571 c 0,1.530615 0.142857,3.224495 0.22449,4.693885 h -0.08163 l -1.000002,-3.244903 -3.28572,-9.3061391 h -1.938779 z"
     id="text2"
     style="font-size:20.4082px;font-family:'思源黑體 香港 HW';-inkscape-font-specification:'思源黑體 香港 HW, @BEVL=80.0,wght=400';font-variation-settings:'BEVL' 80, 'wght' 400;letter-spacing:0px;fill:#4577e9;stroke:#d7dbe4;stroke-width:0;stroke-linecap:round;stroke-linejoin:round;paint-order:stroke fill markers"
     aria-label="NN" />
</svg>
