<svg display="block" preserveAspectRatio="none" version="1.1" viewBox="0 0 376.2 138.7" xmlns="http://www.w3.org/2000/svg"><g transform="matrix(2.753 0 0 2.753 -37.19 -44.96)"><g stroke-width=".082"><path d="m35.66 16.36c1.626-0.09216 3.377 0.03485 4.998 0.1352 0.881 0.05445 2.126 0.09561 2.778 0.7334 0.3913 0.3826 0.2657 1.301 0.2366 1.814 0.4406 0.6856 0.672 1.012 0.7992 1.812 0.9565-0.4268 2.081-0.7262 3.09-1.042 3.522-1.103 6.834-1.849 10.53-1.312 3.787 0.5496 7.249 2.392 9.554 5.506 2.353-2.644 5.319-4.221 8.699-5.122 3.085-0.8219 6.085-0.7931 9.248-0.567 0.9257 0.06617 2.11 0.05338 2.927 0.5335 0.01394 8e-3 0.02788 0.0164 0.041 0.02435 0.03936 0.02296 0.07954 0.04264 0.1132 0.07412 0.164 0.1523 1.628 5.913 1.671 6.453 3.436-5.641 11.71-8.924 18.14-8.402 4.362 0.355 7.313 2.34 10.05 5.563 1.671-0.4921 3.338-1.001 4.999-1.528 1.133-0.3534 2.252-0.7212 3.406-1.005 0.7585-0.1866 1.542-0.1349 1.834 0.7436 1.202 3.616 2.161 7.366 2.971 11.09 0.8774 4.043 2.037 8.123 2.812 12.18 3.379-0.9214 6.695-2.123 10.07-3.046 1.446-0.3954 1.8 0.0938 2.223 1.434 1.151 3.658 2.094 7.378 2.824 11.14 0.2099 1.074 0.7576 3.309 0.2493 4.26-0.2763 0.5276-0.7142 0.9529-1.25 1.214-1.108 0.552-5.212 1.729-6.636 2.17l-13.6 4.223c-2.358 0.7392-3.365 1.235-5.139-0.861-1.681 0.4621-6.49 2.284-7.888 2.094-0.4649-0.06306-0.879-0.2609-1.256-0.5319-1.104-0.7931-3.059-3.166-3.925-4.297-6.91 1.805-12.81 1.522-18.14-3.953-0.114 0.1288-0.2296 0.2565-0.346 0.3829-3.903 4.229-9.905 6.237-15.55 6.467-1.704 0.06936-5.649 0.1426-6.905-1.001-0.9344-0.851-1.894-5.54-1.916-6.748-5.295 5.187-13.36 6.567-20.18 8.837-0.8273 0.2753-1.94 0.3842-2.697-0.1264-1.547-1.043-1.835-3.925-2.245-5.691-3.066 1.503-6.83 2.542-10.21 2.793-11.57 0.858-18.01-9.691-18.51-19.96-0.2197-4.462 1.231-11.02 3.197-15.05 0.7278-1.498 1.656-2.889 2.76-4.136 3.933-4.401 10.36-6.979 16.18-7.304z"/><path d="m106 18.33c0.8503-0.05674 1.624-0.06166 2.475 0.02747 3.05 0.2953 5.889 1.692 7.985 3.928 0.6666 0.7191 0.9962 1.274 1.569 1.982 0.2074-0.05412 0.3747-0.1378 0.574-0.2081 2.478-0.8772 5.026-1.567 7.533-2.362 0.4592-0.1457 0.8814-0.2584 1.323-0.4547 0.4338 1.351 0.8298 3.268 1.162 4.687l1.799 7.646 1.75 7.425c0.3436 1.463 0.8454 3.391 1.037 4.842 1.227-0.1983 2.89-0.7871 4.124-1.155 2.669-0.796 5.322-1.707 8.008-2.441 0.7289 2.972 1.431 5.95 2.107 8.934-4.997 1.325-10.04 3.202-15.04 4.625-2.104 0.6-4.515 1.325-6.557 2.075-0.2238-0.8114-0.4051-1.464-0.5559-2.293-3.2 0.8539-6.357 2.005-9.554 2.878-1.997-2.362-4.397-4.751-6.305-7.062 0.1271 0.6459 0.3173 1.18 0.3985 1.848-0.0845 0.2182-0.2116 0.3113-0.4444 0.3944-6.593 2.358-14.41 0.4192-17.49-6.419-0.4018 2.605-3.957 5.469-6.159 6.727-4.503 2.415-9.64 2.96-14.64 2.271-0.171-1.053-0.5017-2.329-0.7463-3.382-0.5035-2.119-0.9936-4.242-1.47-6.368 3.548 0.3035 10.4 1.428 13.32-0.8982 0.3427-0.2726 0.6994-0.6976 0.7396-1.152 0.02214-0.2512-0.06478-0.4637-0.2312-0.6483-1.955-2.171-10.1-0.036-14.35-5.212-1.76-2.143-2.501-5.357-2.217-8.082 0.3086-2.96 2.04-5.442 4.315-7.275 3.03-2.442 7.323-3.628 11.18-3.687 2.024-0.031 4.037 0.2075 6.046 0.421-0.3903 3.119-0.8044 6.234-1.244 9.346-1.181-0.105-2.188-0.1396-3.577-0.2407-1.645-0.1197-6.738-0.211-6.986 2.097-0.1424 1.327 3.034 1.486 4.099 1.653 2.659 0.4177 6.987 0.6567 9.018 2.719-0.0054-0.05731-0.01065-0.1148-0.0148-0.1723-0.1091-1.601 0.2862-3.904 0.747-5.444 2.079-6.952 9.33-11.07 16.28-11.57z" fill="#fff"/><path d="m105.1 27.84c0.9192-0.07494 2.293 0.153 3.035 0.7889 3.101 2.656 4.782 10.46 2.436 13.93-0.9716 1.435-3.255 2.268-4.883 2.492-1.146 0.09413-2.314-0.1382-3.224-0.8846-2.183-1.79-3.072-5.47-3.399-8.181-0.2337-1.937-0.1156-4.22 1.173-5.769 1.221-1.469 3.008-2.176 4.862-2.373z"/><path d="m105.3 36.11 0.0287-0.0032c0.5387-0.05657 0.8347-0.04575 1.268 0.3263 1.337 1.149 2.092 4.276 2.229 5.954-0.9511 0.8561-2.059 1.065-3.276 1.244-0.7757 0.01394-1.345-0.02321-2.033-0.4759-1.621-1.067-2.283-3.851-1.206-5.487 0.6642-1.01 1.863-1.349 2.99-1.558z" fill="#e0e0df"/><path d="m121.5 40.62c0.0492-0.1984 0.0992-0.8274 0.1238-1.074l0.1074-0.0747c0.1205 1.989 1.177 5.635 1.61 7.71 0.2009 0.9637 0.8593 3.848 1.15 4.67-1.168-0.8661-4.42-2.905-5.745-3.583 1.274-1.653 1.882-3.895 2.402-5.892 0.1017-0.3892 0.3485-1.389 0.3509-1.756z"/><path d="m121.5 37.43c0.0845 0.5226 0.2698 1.537 0.164 2.04l-0.1074 0.0747c-0.0246 0.2471-0.0746 0.876-0.1238 1.074-0.0689-0.8793-5e-3 -2.307 0.0673-3.189z" fill="#e0e0df"/><path d="m35.32 17.75c1.641-0.2459 5.231 0.1169 6.937 0.2926-0.1523 1.725-0.4447 3.432-0.7497 5.135 1.626-0.5685 3.334-1.009 4.938-1.576 7.071-2.501 15.17-3.399 20.25 3.494-1.167 2.07-1.822 3.815-2.375 6.142-0.4275 1.799-0.9517 3.409-1 5.296-0.07412 2.888 0.6235 5.843 2.191 8.29 0.5481 0.8487 1.24 1.586 1.918 2.312-4.533 6.008-9.979 7.125-16.84 9.245-1.562 0.4784-3.159 0.9555-4.694 1.507-0.3809-1.763-1.502-5.899-1.62-7.457-3.668 1.982-7.732 3.659-11.91 4.068-10.05 0.9867-15.23-7.767-16.04-16.54-1.08-11.7 8.011-19.31 18.99-20.21z" fill="#9ac5ff"/><path d="m53.13 29.22c2.602-0.2736 4.472 0.2955 5.757 2.751 1.297 2.478 1.956 5.933 1.202 8.672-0.5644 2.05-2.112 3.34-3.915 4.319-1.086 0.4949-1.65 0.7066-2.837 0.9656-0.2334-1.437-0.6446-3.052-0.9814-4.481l-1.577-6.653c-0.3428-1.439-0.8641-3.384-1.002-4.808 1.146-0.2994 2.179-0.5941 3.354-0.7657z"/><path d="m53.21 37.49c1.323-0.04543 2.331-0.259 3.095 1.081 0.6633 1.162 1.02 2.372 1.175 3.696-0.344 0.3854-0.4895 0.5207-0.8947 0.8417-0.5752 0.4352-1.28 0.7294-1.937 1.023-0.4118-2.169-1.113-4.539-1.438-6.642z" fill="#e0e0df"/><path d="m35.54 27.18c1.014-0.01829 2.216 0.1034 3.213 0.2699 0.2572 0.9824 0.4901 1.971 0.6985 2.965-0.9143 0.4093-2.81 0.9276-3.858 1.252-2.254 0.7068-4.511 1.401-6.773 2.082 0.4985 1.883 0.8559 3.861 1.339 5.755 0.2575 1.011 0.5236 2.124 0.6783 3.148 1.968-0.454 4.134-1.217 6.124-1.782 0.3357 0.6574 0.6236 1.112 1.019 1.727 0.1583 0.2468 0.4119 0.562 0.5938 0.8026-2.852 0.7417-6.576 2.961-9.228 0.3076-3.143-3.145-4.41-10.21-1.129-13.69 1.947-2.067 4.576-2.711 7.324-2.836z"/></g></g></svg>
