<svg display="block" preserveAspectRatio="none" version="1.1" viewBox="0 0 16 16" xmlns="http://www.w3.org/2000/svg"><g stroke-width=".007348"><path d="m0.9672 5.926c0.0301-0.1215 0.05872-0.2451 0.1087-0.3612 0.3228-0.7491 1.138-1.144 1.87-1.384 0.06905-0.02271 0.1474-0.03079 0.2185-0.02944-0.08292 0.2256-0.1946 0.5322-0.288 0.7496-0.458 0.1656-0.8508 0.4066-1.071 0.8656-0.13 0.271-0.0346 0.5882 0.1777 0.7878 0.273 0.2881 0.5338 0.4191 0.8831 0.5774 0.3632 0.1662 0.7374 0.3073 1.12 0.4224 0.4703 0.1383 0.9868 0.2304 1.471 0.3107 1.155 0.1918 2.332 0.2608 3.502 0.2053 0.9897-0.04695 1.977-0.1919 2.933-0.4555 0.2714-0.07486 0.5493-0.1585 0.8153-0.2524 0.4481-0.1819 1.206-0.5834 1.439-1.029 0.07348-0.1405 0.08406-0.4021 0.02395-0.5507-0.1489-0.3681-0.5637-0.6516-0.9142-0.8078-0.05812-0.02523-0.1167-0.04945-0.1756-0.07264 0.09891-0.1861 0.2071-0.3746 0.3102-0.559 0.6535 0.2365 1.426 0.7662 1.589 1.497 0.01955 0.0873 0.01528 0.2131 0.01617 0.3042l0.0035 0.393c5.92e-4 0.05108 5.07e-4 0.2104 0.0098 0.2537v0.468c-0.05835 0.2152-0.1212 0.3857-0.2661 0.5631 0.123 0.06668 0.1952 0.1044 0.2661 0.2267v2.199c-0.06378 0.2156-0.1413 0.4015-0.294 0.5732 0.08951 0.05063 0.2462 0.1367 0.2793 0.2446 0.0108 0.03513 0.0073 0.1703 0.0072 0.2146l7.43e-4 0.5171c2.2e-4 0.04534-0.0015 0.2034 0.0068 0.2405v0.9941c-0.01594 0.07709-0.03593 0.1806-0.06701 0.2517-0.1897 0.4335-0.5231 0.7308-0.9073 0.9828-0.492 0.3228-0.9336 0.4812-1.479 0.6542-0.9181 0.2911-1.844 0.4348-2.8 0.5269-0.2547 0.02432-0.5098 0.0438-0.7652 0.05834-0.0748 4e-3 -0.3435 0.0089-0.3993 0.02087h-0.9197c-0.07042-0.01403-0.3552-0.01264-0.4503-0.01624-0.3293-0.01264-0.6584-0.03056-0.9872-0.05379-1.318-0.09993-3.284-0.5228-4.385-1.247-0.3235-0.2127-0.6583-0.5228-0.8088-0.8852-0.03522-0.0848-0.05409-0.1725-0.07266-0.262v-1.998c0.06366-0.1564 0.17-0.2049 0.316-0.2733-0.1645-0.1703-0.2314-0.2787-0.316-0.4981v-0.6892c0.08063-0.1181 0.232-0.2204 0.3739-0.2476 0.00585 0.1354-0.0261 0.2845 0.00324 0.4164 0.0755 0.3394 0.8423 0.8529 1.121 1.027 0.7134 0.4476 1.536 0.7126 2.361 0.8561 0.3841 0.0668 0.775 0.1092 1.165 0.0787 0.3976-0.03042 0.7857-0.1367 1.143-0.3131 0.3016-0.1512 0.5312-0.3232 0.8084-0.5074 0.3118-0.2082 0.637-0.3732 0.9849-0.5091 0.5561-0.2171 1.112-0.2698 1.696-0.3454 0.3173-0.04107 0.7081-0.1294 1.022-0.2007 0.8613-0.1958 2.434-0.6581 2.929-1.445l0.0063-0.01234c0.07709-0.1508 0.09516-0.2839 0.04291-0.446-0.1998 0.2142-0.479 0.3894-0.7296 0.5365-0.1747 0.1025-0.3689 0.2275-0.5531 0.3091-0.9443 0.4183-1.983 0.6064-2.997 0.7727-0.4724 0.06929-0.9464 0.1051-1.403 0.256-0.3795 0.1254-0.7412 0.3036-1.08 0.5154-0.4199 0.2625-0.846 0.5777-1.32 0.7357-0.4021 0.134-0.8826 0.147-1.3 0.1021-1.096-0.1211-2.148-0.5026-3.066-1.113-0.2958-0.1958-0.6095-0.437-0.8336-0.7148-0.0361-0.03454-0.09247-0.1113-0.122-0.1534-0.1464-0.208-0.196-0.3598-0.2519-0.5992zm13.62 5.438c0.08465-0.1577 0.08839-0.2789 0.05313-0.4571-0.1784 0.1793-0.387 0.3169-0.5975 0.4543-0.4386 0.2913-0.9114 0.4734-1.408 0.6346-1.459 0.4734-3.024 0.6576-4.552 0.6504-1.747-0.0081-3.519-0.1412-5.139-0.8414-0.6484-0.2802-1.073-0.4715-1.597-0.9604-0.00737 0.2315-0.04713 0.4592 0.1483 0.6239 1.467 1.237 4.047 1.64 5.887 1.684 0.5738 0.01469 1.148 0.0078 1.721-0.02079 1.431-0.08259 2.972-0.3514 4.29-0.9292 0.371-0.1626 0.9782-0.4925 1.193-0.8381z" fill="#e0e0e0"/><path d="m5.042 1.216 1.319-0.4992c0.1959-0.07409 0.4242-0.1541 0.6158-0.2336l0.3933 1.239c0.3298-0.03182 0.8005-0.03593 1.129 0.01027l0.7369-1.224 1.357 0.5538c0.2319 0.09454 0.5673 0.2422 0.7998 0.3119-0.126 0.4446-0.2439 0.9116-0.3768 1.352 0.1671 0.1309 0.2944 0.2355 0.4517 0.38 0.3185-0.07436 0.6469-0.1327 0.9643-0.2073 0.2291 0.2987 0.4505 0.6043 0.6775 0.9046 0.02668 0.03531 0.05651 0.07506 0.08038 0.1121-0.07613 0.2265-0.1536 0.4525-0.2326 0.6781-0.0471 0.1361-0.09736 0.2927-0.1479 0.4258 0.3893 0.4295 0.5996 1.011 0.6829 1.577-0.4382 0.2428-0.8979 0.4449-1.373 0.6038-0.446 0.148-0.8319 0.2309-1.29 0.3147-0.7461 0.1379-1.502 0.2191-2.26 0.243-0.2235 0.008906-0.4471 0.01165-0.6707 0.008236-0.1362-0.002896-0.3604-0.01728-0.4896-0.01182-0.1205 0.002984-0.3266-0.01534-0.4527-0.02589-0.202-0.01691-0.4409-0.03241-0.6407-0.06206-0.1068-0.02063-0.2464-0.03407-0.3569-0.04983-0.1949-0.02829-0.3892-0.06081-0.5827-0.09755-0.9059-0.1742-1.791-0.4444-2.639-0.806l0.00148-7e-3c0.01481-0.07348 0.01966-0.169 0.02984-0.2461 0.01532-0.1159 0.03299-0.2289 0.05413-0.344 0.111-0.5995 0.3113-1.179 0.5943-1.719-0.1589-0.3935-0.3248-0.7928-0.4786-1.187l0.8163-0.7943c0.1054-0.1008 0.2113-0.2144 0.3201-0.3099 0.1546 0.2789 0.3065 0.5735 0.4566 0.8558 0.1342-0.1505 0.5943-0.4747 0.7738-0.5734-0.1012-0.3654-0.1635-0.7986-0.2623-1.171z" fill="#478cbf"/><path d="m6.315 7.666c0.03002-0.3353 0.1119-0.7214 0.5036-0.7876 0.4963-0.0839 0.6457 0.3929 0.5995 0.7996-0.00291 0.02534-0.0061 0.05065-0.00955 0.07593-0.1205 0.002988-0.3266-0.01534-0.4527-0.02589-0.202-0.01691-0.4409-0.03241-0.6407-0.06206z" fill="#e0e0e0"/><path d="m8.028 6.203c0.04814-0.5744 0.5409-1.009 1.117-0.9838 0.5759 0.02471 1.03 0.4994 1.028 1.076-0.00125 0.5764-0.4571 1.049-1.033 1.071-0.576 0.02224-1.067-0.414-1.113-0.9886-0.00462-0.05822-0.0045-0.1167 3.885e-4 -0.1749z" fill="#e0e0e0"/><path d="m8.042 6.186c0.04668-0.3996 0.3971-0.6932 0.7987-0.6692 0.4016 0.024 0.7145 0.3573 0.7133 0.7596-0.001183 0.4023-0.3163 0.7336-0.7179 0.7551-0.4017 0.02152-0.7504-0.2743-0.7946-0.6741l-0.00788-0.01702 0.00464 0.00133-0.00908-0.00519c1.471e-4 0.01707 0.00105 0.02377-0.00188 0.04078-0.00462-0.05822-0.0045-0.1167 3.886e-4 -0.1749z"/><path d="m8.028 6.203 0.01434-0.01636c-0.00665 0.05693-0.00682 0.1144-5.238e-4 0.1714l-0.00788-0.01702 0.00464 0.00133-0.00908-0.00519c1.469e-4 0.01707 0.00105 0.02377-0.00188 0.04078-0.00462-0.05822-0.0045-0.1167 3.886e-4 -0.1749z" fill="#e1e1e0"/><path d="m5.14 5.001c0.564-0.05294 1.064 0.3619 1.116 0.926 0.05209 0.5641-0.3634 1.063-0.9276 1.115-0.563 0.05114-1.061-0.3633-1.113-0.9262-0.05198-0.5629 0.3617-1.062 0.9246-1.114z" fill="#e0e0e0"/><path d="m4.895 5.257c0.3929-0.03136 0.7375 0.2601 0.7719 0.6527 0.03435 0.3926-0.2545 0.7395-0.6468 0.7768-0.3966 0.03774-0.748-0.2549-0.7827-0.6517-0.03472-0.3969 0.2605-0.7461 0.6577-0.7778z"/></g></svg>
