<svg id="mdi-progress-check" version="1.1" viewBox="0 0 24 24" xmlns="http://www.w3.org/2000/svg"><path d="m13 2.03v0.02 2c4.39 0.54 7.5 4.53 6.96 8.92-0.46 3.64-3.32 6.53-6.96 6.96v2c5.5-0.55 9.5-5.43 8.95-10.93-0.45-4.75-4.22-8.5-8.95-8.97m-2 0.03c-1.95 0.19-3.81 0.94-5.33 2.2l1.43 1.48c1.12-0.9 2.47-1.48 3.9-1.68v-2m-6.74 3.61c-1.26 1.52-2.01 3.37-2.21 5.33h2c0.19-1.42 0.75-2.77 1.64-3.9l-1.43-1.43m11.24 2.83-4.88 4.88-2.12-2.12-1.06 1.06 3.18 3.18 5.94-5.94-1.06-1.06m-13.44 4.5c0.2 1.96 0.97 3.81 2.21 5.33l1.42-1.43c-0.88-1.13-1.45-2.48-1.63-3.9h-2m5.04 5.37-1.43 1.37c1.51 1.26 3.37 2.05 5.33 2.26v-2c-1.42-0.18-2.77-0.75-3.9-1.63z" fill="#fff"/></svg>
