<?xml version="1.0" encoding="UTF-8" standalone="no"?>
<svg
   viewBox="0 0 24 24"
   version="1.1"
   id="svg8"
   sodipodi:docname="sql_file.svg"
   width="24"
   height="24"
   inkscape:version="1.3 (0e150ed6c4, 2023-07-21)"
   xmlns:inkscape="http://www.inkscape.org/namespaces/inkscape"
   xmlns:sodipodi="http://sodipodi.sourceforge.net/DTD/sodipodi-0.dtd"
   xmlns="http://www.w3.org/2000/svg"
   xmlns:svg="http://www.w3.org/2000/svg"
   xmlns:rdf="http://www.w3.org/1999/02/22-rdf-syntax-ns#"
   xmlns:cc="http://creativecommons.org/ns#"
   xmlns:dc="http://purl.org/dc/elements/1.1/">
  <sodipodi:namedview
     id="namedview8"
     pagecolor="#505050"
     bordercolor="#eeeeee"
     borderopacity="1"
     inkscape:showpageshadow="0"
     inkscape:pageopacity="0"
     inkscape:pagecheckerboard="0"
     inkscape:deskcolor="#505050"
     inkscape:zoom="9.5293687"
     inkscape:cx="-35.574235"
     inkscape:cy="30.799522"
     inkscape:window-width="3840"
     inkscape:window-height="2054"
     inkscape:window-x="-11"
     inkscape:window-y="-11"
     inkscape:window-maximized="1"
     inkscape:current-layer="svg8" />
  <defs
     id="defs1">
    <style
       id="style1">.cls-1{fill:#cfd8dd;}.cls-2{fill:#ebeff1;}.cls-3{fill:#0090e0;}</style>
  </defs>
  <title
     id="title1">Typography</title>
  <g
     id="Layer_2"
     data-name="Layer 2"
     transform="matrix(0.34375,0,0,0.34375,1.6875,1)">
    <g
       id="Layer_1-2"
       data-name="Layer 1">
      <rect
         class="cls-1"
         x="4"
         y="4"
         width="56"
         height="60"
         rx="4"
         ry="4"
         id="rect1" />
      <rect
         class="cls-2"
         width="56"
         height="60"
         rx="4"
         ry="4"
         id="rect2"
         x="0"
         y="0" />
      <path
         class="cls-3"
         d="m 8,8 v 6 h 2 a 2,2 0 0 1 2,-2 h 4 v 12 a 2,2 0 0 1 -2,2 v 2 h 8 V 26 A 2,2 0 0 1 20,24 V 12 h 4 a 2,2 0 0 1 2,2 h 2 V 8 Z"
         id="path2" />
      <rect
         class="cls-1"
         x="32"
         y="8"
         width="10"
         height="4"
         id="rect3"
         style="fill:#6b8391;fill-opacity:1" />
      <rect
         class="cls-1"
         x="32"
         y="24"
         width="14"
         height="4"
         id="rect4"
         style="fill:#6b8391;fill-opacity:1" />
      <rect
         class="cls-1"
         x="8"
         y="32"
         width="40"
         height="4"
         id="rect5"
         style="fill:#6b8391;fill-opacity:1" />
      <rect
         class="cls-1"
         x="8"
         y="40"
         width="36"
         height="4"
         id="rect6"
         style="fill:#6b8391;fill-opacity:1" />
      <rect
         class="cls-1"
         x="8"
         y="48"
         width="18"
         height="4"
         id="rect7"
         style="fill:#6b8391;fill-opacity:1" />
      <rect
         class="cls-1"
         x="32"
         y="16"
         width="16"
         height="4"
         id="rect8"
         style="fill:#6b8391;fill-opacity:1" />
    </g>
  </g>
  <metadata
     id="metadata8">
    <rdf:RDF>
      <cc:Work
         rdf:about="">
        <dc:title>Typography</dc:title>
      </cc:Work>
    </rdf:RDF>
  </metadata>
</svg>
