<?xml version="1.0" encoding="UTF-8" standalone="no"?>
<svg
   viewBox="0 0 24 24"
   version="1.1"
   id="svg1"
   sodipodi:docname="windows.svg"
   width="24"
   height="24"
   inkscape:version="1.3 (0e150ed6c4, 2023-07-21)"
   xmlns:inkscape="http://www.inkscape.org/namespaces/inkscape"
   xmlns:sodipodi="http://sodipodi.sourceforge.net/DTD/sodipodi-0.dtd"
   xmlns="http://www.w3.org/2000/svg"
   xmlns:svg="http://www.w3.org/2000/svg">
  <defs
     id="defs1" />
  <sodipodi:namedview
     id="namedview1"
     pagecolor="#505050"
     bordercolor="#eeeeee"
     borderopacity="1"
     inkscape:showpageshadow="0"
     inkscape:pageopacity="0"
     inkscape:pagecheckerboard="0"
     inkscape:deskcolor="#505050"
     inkscape:zoom="13.476562"
     inkscape:cx="-33.762319"
     inkscape:cy="1.0017391"
     inkscape:window-width="3840"
     inkscape:window-height="2054"
     inkscape:window-x="-11"
     inkscape:window-y="-11"
     inkscape:window-maximized="1"
     inkscape:current-layer="svg1" />
  <path
     d="M 19.3125,3 H 8.0625 C 7.1308594,3 6.375,3.7558594 6.375,4.6875 V 6.375 H 4.6875 C 3.7558594,6.375 3,7.1308594 3,8.0625 v 11.25 C 3,20.244141 3.7558594,21 4.6875,21 h 11.25 c 0.931641,0 1.6875,-0.755859 1.6875,-1.6875 V 17.625 h 1.6875 C 20.244141,17.625 21,16.869141 21,15.9375 V 4.6875 C 21,3.7558594 20.244141,3 19.3125,3 Z m -3.375,16.3125 H 4.6875 V 12 h 11.25 z m 3.375,-3.375 H 17.625 V 8.0625 C 17.625,7.1308594 16.869141,6.375 15.9375,6.375 H 8.0625 V 4.6875 h 11.25 z"
     id="path1"
     style="fill:#d7dbe4;fill-opacity:1;stroke-width:0.0351562" />
</svg>
