<?xml version="1.0" encoding="UTF-8" standalone="no"?>
<svg
   version="1.1"
   width="24"
   height="24"
   id="svg228"
   sodipodi:docname="GBatisMapper.svg"
   inkscape:version="1.3 (0e150ed6c4, 2023-07-21)"
   xmlns:inkscape="http://www.inkscape.org/namespaces/inkscape"
   xmlns:sodipodi="http://sodipodi.sourceforge.net/DTD/sodipodi-0.dtd"
   xmlns="http://www.w3.org/2000/svg"
   xmlns:svg="http://www.w3.org/2000/svg">
  <defs
     id="defs228" />
  <sodipodi:namedview
     id="namedview228"
     pagecolor="#505050"
     bordercolor="#eeeeee"
     borderopacity="1"
     inkscape:showpageshadow="0"
     inkscape:pageopacity="0"
     inkscape:pagecheckerboard="0"
     inkscape:deskcolor="#505050"
     inkscape:zoom="22.627417"
     inkscape:cx="-3.314563"
     inkscape:cy="11.38"
     inkscape:window-width="3840"
     inkscape:window-height="2054"
     inkscape:window-x="-11"
     inkscape:window-y="-11"
     inkscape:window-maximized="1"
     inkscape:current-layer="svg228" />
  <g
     id="g234"
     transform="matrix(0.01783894,0,0,0.01783894,-6.2670746,-6.2670746)">
    <g
       id="g233"
       transform="translate(-54.04475,-34.6588)">
      <g
         id="g232">
        <path
           id="rect228"
           style="font-variation-settings:'BEVL' 80, 'wght' 400;fill:#1a91e9;fill-opacity:1;fill-rule:evenodd;stroke:none;stroke-width:1.96694;stroke-linecap:round;stroke-linejoin:round;stroke-opacity:1;paint-order:stroke fill markers"
           inkscape:label="left"
           d="m 555.3592,564.2887 c -83.09992,0 -150,66.8859 -150,149.9668 v 688.8086 c 0,83.0809 66.90008,149.9648 150,149.9648 h 534.9239 V 564.2887 Z" />
      </g>
      <path
         id="rect228-8"
         style="font-variation-settings:'BEVL' 80, 'wght' 400;display:inline;fill:#3bc661;fill-opacity:1;fill-rule:evenodd;stroke:none;stroke-width:1.96694;stroke-linecap:round;stroke-linejoin:round;paint-order:stroke fill markers"
         inkscape:label="right"
         d="m 1090.2831,564.2887 v 960.3203 c 0,9.732 -0.8842,19.2139 -2.4395,28.4199 h 512.8867 c 83.0999,0 150,-66.8839 150,-149.9648 V 714.2555 c 0,-83.081 -66.9001,-149.9668 -150,-149.9668 z" />
    </g>
    <g
       id="g231"
       transform="matrix(1.305254,0,0,1.3508992,-320.12685,-432.70866)">
      <path
         d="m 848.9722,905.3311 c 4.47714,2.4183 8.25372,5.2176 12.01562,8.6289 0.67418,0.571 1.34836,1.1421 2.04297,1.7304 11.48087,10.415 17.73946,26.0253 18.95703,41.2696 0.14113,4.5424 0.17776,9.0837 0.19923,13.6279 0.0119,2.306 0.0314,4.6118 0.0531,6.9177 0.0611,6.5513 0.11551,13.1026 0.14902,19.6541 0.0211,4.0229 0.0566,8.0456 0.10076,12.0683 0.014,1.5196 0.0228,3.0392 0.026,4.5588 0.0323,13.8382 1.33418,26.2045 10.47182,37.1732 6.64859,6.0339 15.06798,8.5028 23.5,11.0625 3.29492,1.2356 4.68484,2.6694 6.55469,5.5781 1.31906,3.2922 1.28501,6.197 1.32031,9.7344 0.0284,1.2865 0.0567,2.5729 0.0859,3.8984 -0.53236,4.304 -1.71972,6.4064 -4.46094,9.7266 -2.37946,1.2393 -4.49096,2.1218 -7,3 -7.48955,2.8086 -13.14441,5.5263 -19,11 -0.66,0 -1.32,0 -2,0 -0.41765,0.843 -0.41765,0.843 -0.84375,1.7031 -0.77509,1.5397 -1.56703,3.071 -2.375,4.5938 -0.42281,0.8095 -0.84562,1.619 -1.28125,2.4531 -0.42281,0.7992 -0.84562,1.5984 -1.28125,2.4219 -2.63518,6.1149 -3.46827,11.8413 -3.50586,18.4624 -0.007,0.7166 -0.0137,1.4332 -0.0207,2.1715 -0.0135,1.5413 -0.0226,3.0827 -0.0277,4.6241 -0.008,2.4483 -0.0289,4.8962 -0.0525,7.3444 -0.048,5.2002 -0.0811,10.4004 -0.11194,15.6007 -0.0358,6.0248 -0.078,12.0494 -0.13594,18.0741 -0.0199,2.3961 -0.0283,4.792 -0.0363,7.1882 -0.11936,17.0871 -3.51707,31.7021 -14.32776,45.3627 -0.7483,1.0286 -0.7483,1.0286 -1.51171,2.0781 -10.51656,13.457 -29.10083,20.6555 -45.48829,22.9219 -13.16777,1.214 -13.16777,1.214 -17.87109,-1.9024 -4.24045,-4.1782 -3.38434,-8.6945 -3.44141,-14.3476 -0.029,-0.9423 -0.058,-1.8846 -0.0879,-2.8555 -0.0528,-5.7896 0.32984,-9.4176 4.40039,-13.8945 3.03001,-2.1135 6.00026,-2.3774 9.625,-2.8125 8.44152,-1.3383 15.79403,-4.2423 21.12891,-11.1641 4.86318,-7.8969 6.35534,-15.9485 6.40381,-25.1235 0.005,-0.6839 0.0102,-1.3677 0.0154,-2.0723 0.0106,-1.4764 0.0193,-2.9529 0.0261,-4.4293 0.0119,-2.3478 0.0314,-4.6955 0.0531,-7.0432 0.0613,-6.6725 0.11548,-13.345 0.14902,-20.0177 0.0211,-4.092 0.0566,-8.1836 0.10076,-12.2754 0.014,-1.5475 0.0228,-3.095 0.026,-4.6425 0.0406,-17.7405 3.49732,-32.979 16.11245,-46.1656 5.91531,-5.6509 11.91583,-9.8705 19.35937,-13.2539 -1.45406,-0.5569 -1.45406,-0.5569 -2.9375,-1.125 -12.29249,-5.3424 -22.29782,-14.7778 -28.0625,-26.875 -3.74744,-9.8858 -4.56224,-18.902 -4.48585,-29.343 0.0176,-2.4792 0.01,-4.9573 -0.004,-7.4366 -0.0251,-5.261 -0.0199,-10.5218 -0.01,-15.7829 0.0116,-6.1106 0.0101,-12.2207 -0.0241,-18.3312 -0.007,-2.4179 0.009,-4.8349 0.0271,-7.2527 -0.002,-12.3798 -1.40751,-24.5977 -10.50306,-33.8536 -5.53483,-4.7626 -12.48026,-6.1922 -19.53515,-7.4531 -0.77215,-0.1393 -1.5443,-0.2785 -2.33985,-0.4219 -0.67804,-0.1006 -1.35609,-0.2011 -2.05468,-0.3047 -3.39991,-1.3471 -4.88972,-2.8655 -7.07032,-5.8203 -0.70607,-3.5177 -0.65349,-6.924 -0.5625,-10.5 -0.011,-0.9372 -0.0219,-1.8743 -0.0332,-2.8399 0.0462,-4.3388 0.18555,-6.9734 2.44336,-10.7539 10.58158,-9.3717 35.9974,0.2967 47.13672,5.4649 z"
         fill="#fcfefd"
         id="path4" />
      <path
         d="m 761.14798,899.8545 c 2.68015,4.5238 2.34898,8.5108 2.21484,13.668 -0.001,0.9455 -0.003,1.891 -0.004,2.8652 -0.10027,7.8822 -0.10027,7.8822 -2.3711,11.5723 -2.90801,1.9261 -5.70843,2.3869 -9.125,2.875 -9.40685,1.643 -16.93708,4.3503 -22.875,12.125 -5.94834,9.3048 -6.28442,18.9136 -6.27439,29.6603 9.8e-4,2.32 -0.0121,4.6396 -0.029,6.9596 -0.0459,6.5917 -0.0708,13.1834 -0.0775,19.7753 -0.005,4.049 -0.0297,8.0975 -0.0653,12.1463 -0.01,1.5238 -0.0122,3.0476 -0.007,4.5715 0.0639,18.9965 -3.50633,36.2336 -16.90245,50.5198 -5.35912,4.7971 -11.80652,9.0878 -18.64454,11.3672 0.72446,0.4589 1.44891,0.9178 2.19532,1.3906 2.00059,1.2697 3.99785,2.5447 5.99218,3.8242 1.9538,1.2401 3.9357,2.4366 5.9375,3.5977 11.52306,8.7675 18.16564,21.1191 20.875,35.1875 0.36206,4.8391 0.42073,9.6497 0.41069,14.5007 -0.005,2.3946 0.01,4.7885 0.0284,7.183 0.0365,5.0846 0.0504,10.1691 0.0609,15.2538 0.0122,5.8971 0.034,11.7938 0.08,17.6908 0.0134,2.3374 0.009,4.6744 0.005,7.0118 0.0425,11.552 0.56374,23.1052 8.87634,31.9068 6.73821,6.3902 14.26259,8.5283 23.33594,9.1132 3.23885,0.4996 4.99904,1.9936 7.20312,4.3399 1.98684,3.9736 1.27257,8.9432 1.3125,13.3125 0.0435,1.5691 0.0435,1.5691 0.0879,3.1699 0.0641,7.7409 0.0641,7.7409 -2.29492,11.6855 -4.74326,4.1273 -10.09474,3.1891 -16.10547,2.8321 -20.17558,-2.547 -38.3998,-10.701 -51.33203,-26.9258 -10.39554,-14.8701 -13.12156,-31.5369 -13.04809,-49.2931 0.009,-2.4534 -10e-4,-4.906 -0.0166,-7.3593 -0.0396,-6.9635 -0.0413,-13.9268 -0.039,-20.8903 5e-5,-4.2893 -0.0193,-8.5781 -0.0493,-12.8672 -0.0107,-2.3969 10e-4,-4.7929 0.0138,-7.1898 -0.0293,-12.7448 -2.35047,-23.1127 -11.52871,-32.4745 -5.6625,-5.0308 -12.3013,-7.4646 -19.41577,-9.7332 -4.59001,-1.546 -6.9924,-3.1647 -9.58423,-7.2668 -1.05336,-3.1601 -1.20032,-5.5553 -1.25,-8.875 -0.0258,-1.0287 -0.0516,-2.0574 -0.0781,-3.1172 0.44815,-4.108 2.15405,-6.4363 4.57422,-9.6758 2.64681,-2.0102 5.6716,-2.7243 8.8164,-3.6445 9.40805,-2.984 17.45399,-6.3088 22.69141,-15.1367 6.00072,-12.2837 6.38193,-24.1729 6.35363,-37.6207 -0.004,-3.6845 0.0224,-7.3688 0.0429,-11.0532 0.0242,-4.6468 0.0401,-9.2932 0.0247,-13.9402 -0.11765,-42.2072 -0.11765,-42.2072 13.82495,-59.9367 0.66774,-0.8585 1.33547,-1.7171 2.02344,-2.6016 12.52275,-14.964 29.70317,-21.3347 48.66406,-23.0859 11.69701,-0.7294 11.69701,-0.7294 15.47266,2.582 z"
         fill="#fcfdfd"
         id="path5" />
    </g>
    <g
       id="g230"
       transform="matrix(1.305254,0,0,1.3508992,-456.05035,-437.67293)">
      <rect
         style="font-variation-settings:'BEVL' 80, 'wght' 400;fill:#fcfefd;fill-opacity:1;fill-rule:evenodd;stroke:none;stroke-width:1.731;stroke-linecap:round;stroke-linejoin:round;stroke-opacity:1;paint-order:stroke fill markers"
         id="rect230"
         width="358"
         height="58"
         x="1220"
         y="918"
         rx="30"
         ry="30" />
      <rect
         style="font-variation-settings:'BEVL' 80, 'wght' 400;fill:#fcfefd;fill-opacity:1;fill-rule:evenodd;stroke:none;stroke-width:1.731;stroke-linecap:round;stroke-linejoin:round;stroke-opacity:1;paint-order:stroke fill markers"
         id="rect230-5"
         width="358"
         height="58"
         x="1220"
         y="1188"
         rx="30"
         ry="30" />
      <rect
         style="font-variation-settings:'BEVL' 80, 'wght' 400;fill:#fcfefd;fill-opacity:1;fill-rule:evenodd;stroke:none;stroke-width:1.731;stroke-linecap:round;stroke-linejoin:round;stroke-opacity:1;paint-order:stroke fill markers"
         id="rect230-6"
         width="358"
         height="58"
         x="1220"
         y="1053"
         rx="30"
         ry="30" />
    </g>
  </g>
</svg>
