<svg version="1.1" viewBox="0 0 24 24" xmlns="http://www.w3.org/2000/svg"><rect x=".06755" y=".06756" width="23.87" height="23.87" fill="#445016" fill-rule="evenodd" stroke="#000" stroke-linecap="round" stroke-linejoin="round" stroke-width=".1351" style="paint-order:stroke fill markers"/><g fill="#fff" fill-rule="evenodd" stroke="#000" stroke-linecap="round" stroke-linejoin="round"><path d="m16.24 1.814-5.507 5.628-2.917-1.869-2.474-1.256 4.29 4.888-4.901 6.952 2.551-2.205 3.296-3.348 3.223 3.516 5.102 0.04205-6.011-5.371 9.384-8.174z" stroke-width=".07085" style="font-variation-settings:'BEVL' 80, 'wght' 400;paint-order:stroke fill markers"/><path d="m1.707 15.96-0.1197 7.763 1.975-0.05507 0.1396-5.359 2.134 3.873 1.755-4.166 1.496 5.543 2.872 0.03671-2.473-8.442-2.354 0.2937-1.456 4.038-2.074-3.634z" stroke-width=".05556" style="font-variation-settings:'BEVL' 80, 'wght' 400;paint-order:stroke fill markers"/><path d="m12.14 15.27 1.111 8.379 10.1-0.9571-0.833-2.09-6.361 1.25-1.54-7.168-3.559 0.1172z" stroke-width=".06448" style="font-variation-settings:'BEVL' 80, 'wght' 400;paint-order:stroke fill markers"/></g></svg>
