<?xml version="1.0" encoding="UTF-8" standalone="no"?>
<!-- Generator: Adobe Illustrator 19.0.0, SVG Export Plug-In . SVG Version: 6.00 Build 0)  -->

<svg
   version="1.1"
   id="Layer_1"
   x="0px"
   y="0px"
   viewBox="0 0 24 24"
   xml:space="preserve"
   sodipodi:docname="check.svg"
   inkscape:version="1.3 (0e150ed6c4, 2023-07-21)"
   width="24"
   height="24"
   xmlns:inkscape="http://www.inkscape.org/namespaces/inkscape"
   xmlns:sodipodi="http://sodipodi.sourceforge.net/DTD/sodipodi-0.dtd"
   xmlns="http://www.w3.org/2000/svg"
   xmlns:svg="http://www.w3.org/2000/svg"><defs
   id="defs17" /><sodipodi:namedview
   id="namedview17"
   pagecolor="#505050"
   bordercolor="#eeeeee"
   borderopacity="1"
   inkscape:showpageshadow="0"
   inkscape:pageopacity="0"
   inkscape:pagecheckerboard="0"
   inkscape:deskcolor="#505050"
   inkscape:zoom="26.953125"
   inkscape:cx="-4.7118841"
   inkscape:cy="0.68637681"
   inkscape:window-width="3840"
   inkscape:window-height="2054"
   inkscape:window-x="-11"
   inkscape:window-y="-11"
   inkscape:window-maximized="1"
   inkscape:current-layer="Layer_1" />&#10;<g
   id="g2"
   transform="matrix(0.03257555,0,0,0.03257555,3.660653,3.660655)"
   style="stroke-width:0.995555;stroke-dasharray:none">&#10;	<g
   id="g1"
   style="stroke-width:0.995555;stroke-dasharray:none">&#10;		<path
   d="m 505.9426,79.529803 c -8.077,-8.077 -21.172,-8.077 -29.249,0 L 167.7546,388.46781 35.305603,256.01881 c -8.076,-8.077 -21.172,-8.077 -29.2480002,0 -8.077,8.077 -8.077,21.172 0,29.249 L 153.1316,432.34181 c 4.038,4.039 9.332,6.058 14.625,6.058 5.293,0 10.587,-2.019 14.625,-6.059 l 323.562,-323.562 c 8.075,-8.076 8.075,-21.171007 -10e-4,-29.249007 z"
   id="path1"
   style="fill:#6dff73;fill-opacity:1;stroke:#6dff73;stroke-width:40.8178;stroke-dasharray:none;stroke-opacity:1" />&#10;	</g>&#10;</g>&#10;<g
   id="g3"
   transform="matrix(0.03257555,0,0,0.03257555,0.16810496,66.100192)">&#10;</g>&#10;<g
   id="g4"
   transform="matrix(0.03257555,0,0,0.03257555,0.16810496,66.100192)">&#10;</g>&#10;<g
   id="g5"
   transform="matrix(0.03257555,0,0,0.03257555,0.16810496,66.100192)">&#10;</g>&#10;<g
   id="g6"
   transform="matrix(0.03257555,0,0,0.03257555,0.16810496,66.100192)">&#10;</g>&#10;<g
   id="g7"
   transform="matrix(0.03257555,0,0,0.03257555,0.16810496,66.100192)">&#10;</g>&#10;<g
   id="g8"
   transform="matrix(0.03257555,0,0,0.03257555,0.16810496,66.100192)">&#10;</g>&#10;<g
   id="g9"
   transform="matrix(0.03257555,0,0,0.03257555,0.16810496,66.100192)">&#10;</g>&#10;<g
   id="g10"
   transform="matrix(0.03257555,0,0,0.03257555,0.16810496,66.100192)">&#10;</g>&#10;<g
   id="g11"
   transform="matrix(0.03257555,0,0,0.03257555,0.16810496,66.100192)">&#10;</g>&#10;<g
   id="g12"
   transform="matrix(0.03257555,0,0,0.03257555,0.16810496,66.100192)">&#10;</g>&#10;<g
   id="g13"
   transform="matrix(0.03257555,0,0,0.03257555,0.16810496,66.100192)">&#10;</g>&#10;<g
   id="g14"
   transform="matrix(0.03257555,0,0,0.03257555,0.16810496,66.100192)">&#10;</g>&#10;<g
   id="g15"
   transform="matrix(0.03257555,0,0,0.03257555,0.16810496,66.100192)">&#10;</g>&#10;<g
   id="g16"
   transform="matrix(0.03257555,0,0,0.03257555,0.16810496,66.100192)">&#10;</g>&#10;<g
   id="g17"
   transform="matrix(0.03257555,0,0,0.03257555,0.16810496,66.100192)">&#10;</g>&#10;</svg>
