<?xml version="1.0" encoding="UTF-8" standalone="no"?>
<!-- Generator: Adobe Illustrator 18.1.1, SVG Export Plug-In . SVG Version: 6.00 Build 0)  -->

<svg
   version="1.1"
   id="Capa_1"
   x="0px"
   y="0px"
   viewBox="0 0 23.999999 23.999999"
   xml:space="preserve"
   sodipodi:docname="edit_pencil.svg"
   width="24"
   height="24"
   inkscape:version="1.3 (0e150ed6c4, 2023-07-21)"
   xmlns:inkscape="http://www.inkscape.org/namespaces/inkscape"
   xmlns:sodipodi="http://sodipodi.sourceforge.net/DTD/sodipodi-0.dtd"
   xmlns="http://www.w3.org/2000/svg"
   xmlns:svg="http://www.w3.org/2000/svg"><defs
   id="defs15" /><sodipodi:namedview
   id="namedview15"
   pagecolor="#505050"
   bordercolor="#eeeeee"
   borderopacity="1"
   inkscape:showpageshadow="0"
   inkscape:pageopacity="0"
   inkscape:pagecheckerboard="0"
   inkscape:deskcolor="#505050"
   inkscape:zoom="12.838403"
   inkscape:cx="-14.176218"
   inkscape:cy="18.109729"
   inkscape:window-width="3840"
   inkscape:window-height="2054"
   inkscape:window-x="-11"
   inkscape:window-y="-11"
   inkscape:window-maximized="1"
   inkscape:current-layer="Capa_1" />&#10;<g
   id="Edit"
   transform="matrix(0.06698305,0,0,0.06698305,2.9999394,2.999933)"
   style="fill:#d7dbe4;fill-opacity:1">&#10;	<path
   style="clip-rule:evenodd;fill-rule:evenodd;fill:#d7dbe4;fill-opacity:1"
   d="m 161.359,56.337 c -7.041,-7.049 -18.458,-7.049 -25.498,0 l -6.374,6.381 -89.243,89.337 0.023,0.023 -2.812,2.82 c 0,0 -8.968,9.032 -29.216,74.399 -0.142,0.457 -0.283,0.911 -0.426,1.374 -0.361,1.171 -0.726,2.361 -1.094,3.567 -0.326,1.066 -0.656,2.154 -0.987,3.249 -0.279,0.923 -0.556,1.836 -0.839,2.779 -0.642,2.14 -1.292,4.318 -1.955,6.567 -1.455,4.937 -5.009,16.07 -0.99,20.1 3.87,3.882 15.12,0.467 20.043,-0.993 2.232,-0.662 4.395,-1.311 6.519,-1.952 0.981,-0.296 1.932,-0.586 2.891,-0.878 1.031,-0.314 2.057,-0.626 3.062,-0.935 1.269,-0.39 2.52,-0.775 3.75,-1.157 0.367,-0.114 0.727,-0.227 1.091,-0.34 62.192,-19.365 73.357,-28.453 74.285,-29.284 0.007,-0.005 0.007,-0.005 0.012,-0.01 0.039,-0.036 0.066,-0.06 0.066,-0.06 l 2.879,-2.886 0.193,0.193 89.245,-89.337 -0.001,-0.001 6.374,-6.381 c 7.041,-7.048 7.041,-18.476 0,-25.525 z m -57.96,163.445 c -0.078,0.053 -0.184,0.122 -0.296,0.193 -0.062,0.04 -0.137,0.087 -0.211,0.133 -0.075,0.047 -0.157,0.098 -0.244,0.151 -0.077,0.047 -0.157,0.095 -0.243,0.147 -2.969,1.777 -11.682,6.362 -32.828,14.017 -2.471,0.894 -5.162,1.842 -7.981,2.819 l -30.06,-30.091 c 0.98,-2.84 1.929,-5.551 2.826,-8.041 7.638,-21.235 12.219,-29.974 13.986,-32.939 0.043,-0.071 0.082,-0.136 0.121,-0.2 0.062,-0.102 0.12,-0.197 0.174,-0.284 0.043,-0.069 0.088,-0.141 0.126,-0.2 0.071,-0.111 0.14,-0.217 0.193,-0.296 l 2.2,-2.206 54.485,54.542 z M 263.351,56.337 212.354,5.287 c -7.041,-7.048 -18.456,-7.048 -25.498,0 L 174.108,18.05 c -7.041,7.048 -7.041,18.476 0,25.524 l 50.996,51.05 c 7.04,7.048 18.457,7.048 25.498,0 l 12.749,-12.762 c 7.041,-7.049 7.041,-18.477 0,-25.525 z"
   id="path1" />&#10;</g>&#10;&#10;&#10;&#10;&#10;&#10;&#10;&#10;&#10;&#10;&#10;&#10;&#10;&#10;&#10;&#10;</svg>
