<?xml version="1.0" encoding="UTF-8" standalone="no"?>
<!-- Generator: Adobe Illustrator 19.0.0, SVG Export Plug-In . SVG Version: 6.00 Build 0)  -->

<svg
   version="1.1"
   id="Layer_1"
   x="0px"
   y="0px"
   viewBox="0 0 24 24"
   xml:space="preserve"
   sodipodi:docname="fail.svg"
   width="24"
   height="24"
   inkscape:version="1.3 (0e150ed6c4, 2023-07-21)"
   xmlns:inkscape="http://www.inkscape.org/namespaces/inkscape"
   xmlns:sodipodi="http://sodipodi.sourceforge.net/DTD/sodipodi-0.dtd"
   xmlns="http://www.w3.org/2000/svg"
   xmlns:svg="http://www.w3.org/2000/svg"><defs
   id="defs19" /><sodipodi:namedview
   id="namedview19"
   pagecolor="#505050"
   bordercolor="#eeeeee"
   borderopacity="1"
   inkscape:showpageshadow="0"
   inkscape:pageopacity="0"
   inkscape:pagecheckerboard="0"
   inkscape:deskcolor="#505050"
   inkscape:zoom="19.058737"
   inkscape:cx="-11.543262"
   inkscape:cy="17.970761"
   inkscape:window-width="3840"
   inkscape:window-height="2054"
   inkscape:window-x="-11"
   inkscape:window-y="-11"
   inkscape:window-maximized="1"
   inkscape:current-layer="Layer_1" />&#10;<g
   id="g2"
   transform="matrix(0.03173381,0,0,0.03173381,3.8761272,3.8733761)"
   style="fill:#ef7575;fill-opacity:1;stroke:#ef7575;stroke-width:55.392;stroke-dasharray:none;stroke-opacity:1">&#10;	<g
   id="g1"
   style="fill:#ef7575;fill-opacity:1;stroke:#ef7575;stroke-width:55.392;stroke-dasharray:none;stroke-opacity:1">&#10;		<path
   d="m 505.943,6.058 c -8.077,-8.077 -21.172,-8.077 -29.249,0 L 6.058,476.693 c -8.077,8.077 -8.077,21.172 0,29.249 4.038,4.04 9.332,6.058 14.625,6.058 5.293,0 10.586,-2.019 14.625,-6.059 L 505.943,35.306 c 8.076,-8.076 8.076,-21.171 0,-29.248 z"
   id="path1"
   style="fill:#ef7575;fill-opacity:1;stroke:#ef7575;stroke-width:55.392;stroke-dasharray:none;stroke-opacity:1" />&#10;	</g>&#10;</g>&#10;<g
   id="g4"
   transform="matrix(0.03173381,0,0,0.03173381,3.8761416,3.8733582)"
   style="fill:#ef7575;fill-opacity:1;stroke:#ef7575;stroke-width:55.392;stroke-dasharray:none;stroke-opacity:1">&#10;	<g
   id="g3"
   style="fill:#ef7575;fill-opacity:1;stroke:#ef7575;stroke-width:55.392;stroke-dasharray:none;stroke-opacity:1">&#10;		<path
   d="M 505.942,476.694 35.306,6.059 c -8.076,-8.077 -21.172,-8.077 -29.248,0 -8.077,8.076 -8.077,21.171 0,29.248 l 470.636,470.636 c 4.038,4.039 9.332,6.058 14.625,6.058 5.293,0 10.587,-2.019 14.624,-6.057 8.075,-8.078 8.075,-21.173 -10e-4,-29.25 z"
   id="path2"
   style="fill:#ef7575;fill-opacity:1;stroke:#ef7575;stroke-width:55.392;stroke-dasharray:none;stroke-opacity:1" />&#10;	</g>&#10;</g>&#10;<g
   id="g5"
   transform="matrix(0.0351562,0,0,0.0351562,2.4121095e-4,2.4121095e-4)"
   style="fill:#ef7575;fill-opacity:1">&#10;</g>&#10;<g
   id="g6"
   transform="matrix(0.0351562,0,0,0.0351562,2.4121095e-4,2.4121095e-4)"
   style="fill:#ef7575;fill-opacity:1">&#10;</g>&#10;<g
   id="g7"
   transform="matrix(0.0351562,0,0,0.0351562,2.4121095e-4,2.4121095e-4)"
   style="fill:#ef7575;fill-opacity:1">&#10;</g>&#10;<g
   id="g8"
   transform="matrix(0.0351562,0,0,0.0351562,2.4121095e-4,2.4121095e-4)"
   style="fill:#ef7575;fill-opacity:1">&#10;</g>&#10;<g
   id="g9"
   transform="matrix(0.0351562,0,0,0.0351562,2.4121095e-4,2.4121095e-4)"
   style="fill:#ef7575;fill-opacity:1">&#10;</g>&#10;<g
   id="g10"
   transform="matrix(0.0351562,0,0,0.0351562,2.4121095e-4,2.4121095e-4)"
   style="fill:#ef7575;fill-opacity:1">&#10;</g>&#10;<g
   id="g11"
   transform="matrix(0.0351562,0,0,0.0351562,2.4121095e-4,2.4121095e-4)"
   style="fill:#ef7575;fill-opacity:1">&#10;</g>&#10;<g
   id="g12"
   transform="matrix(0.0351562,0,0,0.0351562,2.4121095e-4,2.4121095e-4)"
   style="fill:#ef7575;fill-opacity:1">&#10;</g>&#10;<g
   id="g13"
   transform="matrix(0.0351562,0,0,0.0351562,2.4121095e-4,2.4121095e-4)"
   style="fill:#ef7575;fill-opacity:1">&#10;</g>&#10;<g
   id="g14"
   transform="matrix(0.0351562,0,0,0.0351562,2.4121095e-4,2.4121095e-4)"
   style="fill:#ef7575;fill-opacity:1">&#10;</g>&#10;<g
   id="g15"
   transform="matrix(0.0351562,0,0,0.0351562,2.4121095e-4,2.4121095e-4)"
   style="fill:#ef7575;fill-opacity:1">&#10;</g>&#10;<g
   id="g16"
   transform="matrix(0.0351562,0,0,0.0351562,2.4121095e-4,2.4121095e-4)"
   style="fill:#ef7575;fill-opacity:1">&#10;</g>&#10;<g
   id="g17"
   transform="matrix(0.0351562,0,0,0.0351562,2.4121095e-4,2.4121095e-4)"
   style="fill:#ef7575;fill-opacity:1">&#10;</g>&#10;<g
   id="g18"
   transform="matrix(0.0351562,0,0,0.0351562,2.4121095e-4,2.4121095e-4)"
   style="fill:#ef7575;fill-opacity:1">&#10;</g>&#10;<g
   id="g19"
   transform="matrix(0.0351562,0,0,0.0351562,2.4121095e-4,2.4121095e-4)"
   style="fill:#ef7575;fill-opacity:1">&#10;</g>&#10;</svg>
